<svg width="751" height="390" viewBox="0 0 751 390" fill="none" xmlns="http://www.w3.org/2000/svg">
<path d="M500.389 82.6765H353.859V250.646H500.389V82.6765Z" fill="#BDBDBD"/>
<path d="M493.775 91.5562H360.464V250.637H493.775V91.5562Z" fill="#DBDBDB"/>
<path d="M493.775 118.865H360.464V127.754H493.775V118.865Z" fill="#BDBDBD"/>
<path d="M469.382 1.90794H459.785V4.90928H469.382V1.90794Z" fill="#BDBDBD"/>
<path d="M469.382 6.10409H459.785V9.10543H469.382V6.10409Z" fill="#BDBDBD"/>
<path d="M469.382 10.3002H459.785V13.3016H469.382V10.3002Z" fill="#BDBDBD"/>
<path d="M469.382 14.4964H459.785V17.4977H469.382V14.4964Z" fill="#BDBDBD"/>
<path d="M469.382 18.6925H459.785V21.6939H469.382V18.6925Z" fill="#BDBDBD"/>
<path d="M469.382 22.8982H459.785V25.8995H469.382V22.8982Z" fill="#BDBDBD"/>
<path d="M469.382 27.0943H459.785V30.0957H469.382V27.0943Z" fill="#BDBDBD"/>
<path d="M469.382 31.2905H459.785V34.2918H469.382V31.2905Z" fill="#BDBDBD"/>
<path d="M469.382 35.4866H459.785V38.488H469.382V35.4866Z" fill="#BDBDBD"/>
<path d="M469.382 39.6828H459.785V42.6841H469.382V39.6828Z" fill="#BDBDBD"/>
<path d="M469.382 43.8885H459.785V46.8898H469.382V43.8885Z" fill="#BDBDBD"/>
<path d="M469.382 48.0846H459.785V51.086H469.382V48.0846Z" fill="#BDBDBD"/>
<path d="M469.382 52.2807H459.785V55.2821H469.382V52.2807Z" fill="#BDBDBD"/>
<path d="M469.382 56.4769H459.785V59.4782H469.382V56.4769Z" fill="#BDBDBD"/>
<path d="M469.382 60.673H459.785V63.6744H469.382V60.673Z" fill="#BDBDBD"/>
<path d="M469.382 64.8692H459.785V67.8705H469.382V64.8692Z" fill="#BDBDBD"/>
<path d="M469.382 69.0749H459.785V72.0762H469.382V69.0749Z" fill="#BDBDBD"/>
<path d="M469.382 73.271H459.785V76.2724H469.382V73.271Z" fill="#BDBDBD"/>
<path d="M469.382 77.4672H459.785V80.4685H469.382V77.4672Z" fill="#BDBDBD"/>
<path d="M469.382 81.6633H459.785V84.6646H469.382V81.6633Z" fill="#BDBDBD"/>
<path d="M594.807 82.6765H519.936V250.646H594.807V82.6765Z" fill="#BDBDBD"/>
<path d="M588.967 91.5562H525.776V250.637H588.967V91.5562Z" fill="#DBDBDB"/>
<path d="M588.967 118.865H525.776V127.754H588.967V118.865Z" fill="#BDBDBD"/>
<path d="M563.799 1.90794H554.203V4.90928H563.799V1.90794Z" fill="#BDBDBD"/>
<path d="M563.799 6.10409H554.203V9.10543H563.799V6.10409Z" fill="#BDBDBD"/>
<path d="M563.799 10.3002H554.203V13.3016H563.799V10.3002Z" fill="#BDBDBD"/>
<path d="M563.799 14.4964H554.203V17.4977H563.799V14.4964Z" fill="#BDBDBD"/>
<path d="M563.799 18.6925H554.203V21.6939H563.799V18.6925Z" fill="#BDBDBD"/>
<path d="M563.799 22.8982H554.203V25.8995H563.799V22.8982Z" fill="#BDBDBD"/>
<path d="M563.799 27.0943H554.203V30.0957H563.799V27.0943Z" fill="#BDBDBD"/>
<path d="M563.799 31.2905H554.203V34.2918H563.799V31.2905Z" fill="#BDBDBD"/>
<path d="M563.799 35.4866H554.203V38.488H563.799V35.4866Z" fill="#BDBDBD"/>
<path d="M563.799 39.6828H554.203V42.6841H563.799V39.6828Z" fill="#BDBDBD"/>
<path d="M563.799 43.8885H554.203V46.8898H563.799V43.8885Z" fill="#BDBDBD"/>
<path d="M563.799 48.0846H554.203V51.086H563.799V48.0846Z" fill="#BDBDBD"/>
<path d="M563.799 52.2807H554.203V55.2821H563.799V52.2807Z" fill="#BDBDBD"/>
<path d="M563.799 56.4769H554.203V59.4782H563.799V56.4769Z" fill="#BDBDBD"/>
<path d="M563.799 60.673H554.203V63.6744H563.799V60.673Z" fill="#BDBDBD"/>
<path d="M563.799 64.8692H554.203V67.8705H563.799V64.8692Z" fill="#BDBDBD"/>
<path d="M563.799 69.0749H554.203V72.0762H563.799V69.0749Z" fill="#BDBDBD"/>
<path d="M563.799 73.271H554.203V76.2724H563.799V73.271Z" fill="#BDBDBD"/>
<path d="M563.799 77.4672H554.203V80.4685H563.799V77.4672Z" fill="#BDBDBD"/>
<path d="M563.799 81.6633H554.203V84.6646H563.799V81.6633Z" fill="#BDBDBD"/>
<path d="M532.859 227.486H321.991V264.42H532.859V227.486Z" fill="#BDBDBD"/>
<path d="M338.087 235.525C338.087 236.41 337.825 237.275 337.333 238.011C336.841 238.747 336.142 239.32 335.324 239.659C334.506 239.997 333.606 240.085 332.738 239.912C331.87 239.738 331.073 239.311 330.448 238.685C329.822 238.058 329.397 237.26 329.225 236.392C329.054 235.523 329.144 234.624 329.484 233.806C329.824 232.989 330.399 232.291 331.136 231.801C331.873 231.31 332.738 231.05 333.624 231.052C334.211 231.052 334.792 231.167 335.334 231.392C335.876 231.617 336.369 231.947 336.783 232.362C337.198 232.778 337.527 233.271 337.75 233.814C337.974 234.357 338.089 234.938 338.087 235.525V235.525Z" fill="#49BDCD"/>
<path d="M358.198 231.052H346.47V239.989H358.198V231.052Z" fill="#49BDCD"/>
<path d="M372.727 231.052H360.999V239.989H372.727V231.052Z" fill="#808080"/>
<path d="M532.859 142.608H321.991V227.592H532.859V142.608Z" fill="#DBDBDB"/>
<path d="M532.859 264.477H321.991V378.328H532.859V264.477Z" fill="#DBDBDB"/>
<path d="M480.737 145.819H374.103V224.389H480.737V145.819Z" fill="#BDBDBD"/>
<path d="M377.869 211.524C377.457 212.926 377.377 214.406 377.636 215.845C377.895 217.284 378.486 218.642 379.362 219.813C380.237 220.983 381.374 221.934 382.681 222.588C383.989 223.243 385.431 223.584 386.893 223.584C388.355 223.584 389.796 223.243 391.104 222.588C392.411 221.934 393.548 220.983 394.423 219.813C395.299 218.642 395.89 217.284 396.149 215.845C396.408 214.406 396.328 212.926 395.916 211.524H377.869Z" fill="#49BDCD"/>
<path d="M390.544 204.317V191.891H383.241V204.317C380.928 205.173 378.989 206.816 377.765 208.958C376.54 211.099 376.108 213.603 376.543 216.031C376.978 218.46 378.253 220.657 380.145 222.241C382.037 223.824 384.426 224.691 386.893 224.691C389.359 224.691 391.748 223.824 393.64 222.241C395.532 220.657 396.807 218.46 397.242 216.031C397.677 213.603 397.245 211.099 396.02 208.958C394.796 206.816 392.857 205.173 390.544 204.317Z" stroke="white" stroke-miterlimit="10"/>
<path d="M420.443 211.524C420.03 212.926 419.95 214.406 420.209 215.845C420.468 217.284 421.059 218.642 421.935 219.813C422.811 220.983 423.947 221.934 425.255 222.588C426.562 223.243 428.004 223.584 429.466 223.584C430.928 223.584 432.37 223.243 433.677 222.588C434.984 221.934 436.121 220.983 436.997 219.813C437.872 218.642 438.463 217.284 438.722 215.845C438.981 214.406 438.901 212.926 438.489 211.524H420.443Z" fill="#49BDCD"/>
<path d="M433.146 204.317V191.891H425.843V204.317C423.53 205.173 421.591 206.816 420.367 208.958C419.142 211.099 418.71 213.603 419.145 216.031C419.58 218.46 420.855 220.657 422.747 222.241C424.639 223.824 427.027 224.691 429.494 224.691C431.961 224.691 434.35 223.824 436.241 222.241C438.133 220.657 439.409 218.46 439.844 216.031C440.279 213.603 439.846 211.099 438.622 208.958C437.397 206.816 435.459 205.173 433.146 204.317Z" stroke="white" stroke-miterlimit="10"/>
<path d="M400.609 214.946C400.412 215.584 400.313 216.247 400.313 216.915C400.278 217.852 400.432 218.787 400.767 219.663C401.102 220.539 401.61 221.339 402.261 222.015C402.912 222.69 403.692 223.228 404.556 223.594C405.419 223.961 406.347 224.151 407.285 224.151C408.223 224.151 409.152 223.961 410.015 223.594C410.878 223.228 411.659 222.69 412.31 222.015C412.961 221.339 413.469 220.539 413.803 219.663C414.138 218.787 414.293 217.852 414.258 216.915C414.256 216.248 414.16 215.585 413.971 214.946H400.609Z" fill="#49BDCD"/>
<path d="M409.995 209.612V200.379H404.585V209.612C402.868 210.247 401.43 211.465 400.521 213.054C399.611 214.642 399.29 216.5 399.612 218.302C399.935 220.103 400.881 221.734 402.284 222.909C403.688 224.084 405.46 224.727 407.29 224.727C409.12 224.727 410.892 224.084 412.296 222.909C413.7 221.734 414.645 220.103 414.968 218.302C415.29 216.5 414.969 214.642 414.06 213.054C413.151 211.465 411.712 210.247 409.995 209.612V209.612Z" stroke="white" stroke-miterlimit="10"/>
<path d="M391.328 157.223H386.577V163.311H391.328V157.223Z" fill="#858585"/>
<path d="M385.459 163.33H392.436C392.913 163.33 393.386 163.424 393.826 163.607C394.267 163.789 394.667 164.057 395.005 164.394C395.342 164.731 395.61 165.132 395.792 165.573C395.975 166.013 396.069 166.486 396.069 166.963V181.195H381.827V166.963C381.827 166.486 381.92 166.013 382.103 165.573C382.286 165.132 382.553 164.731 382.89 164.394C383.228 164.057 383.628 163.789 384.069 163.607C384.509 163.424 384.982 163.33 385.459 163.33V163.33Z" fill="#DBDBDB"/>
<path d="M421.351 157.223H416.6V163.311H421.351V157.223Z" fill="#858585"/>
<path d="M415.491 163.33H422.469C422.946 163.33 423.418 163.424 423.859 163.607C424.3 163.789 424.7 164.057 425.037 164.394C425.375 164.731 425.642 165.132 425.825 165.573C426.007 166.013 426.101 166.486 426.101 166.963V181.195H411.84V166.963C411.84 166.484 411.935 166.01 412.118 165.568C412.302 165.126 412.571 164.725 412.911 164.387C413.25 164.05 413.653 163.783 414.095 163.601C414.538 163.42 415.013 163.328 415.491 163.33Z" fill="#DBDBDB"/>
<path d="M447.369 157.223H442.618V163.311H447.369V157.223Z" fill="#858585"/>
<path d="M441.471 163.33H448.449C448.926 163.33 449.398 163.424 449.839 163.607C450.279 163.789 450.68 164.057 451.017 164.394C451.354 164.731 451.622 165.132 451.804 165.573C451.987 166.013 452.081 166.486 452.081 166.963V181.195H437.867V166.963C437.867 166.004 438.246 165.085 438.921 164.404C439.596 163.724 440.513 163.338 441.471 163.33V163.33Z" fill="#DBDBDB"/>
<path d="M466.17 157.223H461.419V163.311H466.17V157.223Z" fill="#858585"/>
<path d="M460.301 163.33H467.279C467.756 163.33 468.228 163.424 468.669 163.607C469.109 163.789 469.51 164.057 469.847 164.394C470.184 164.731 470.452 165.132 470.634 165.573C470.817 166.013 470.911 166.486 470.911 166.963V181.195H456.669V166.963C456.669 165.999 457.052 165.075 457.733 164.394C458.414 163.713 459.338 163.33 460.301 163.33V163.33Z" fill="#DBDBDB"/>
<path d="M480.737 181.09H374.103V189.109H480.737V181.09Z" fill="#DBDBDB"/>
<path d="M336.348 269.744L338.489 273.682H350.609L352.75 269.744H336.348Z" fill="#808080"/>
<path d="M392.169 269.744L394.31 273.682H406.43L408.571 269.744H392.169Z" fill="#808080"/>
<path d="M447.99 269.744L450.121 273.682H462.251L464.392 269.744H447.99Z" fill="#808080"/>
<path d="M503.811 269.744L505.942 273.682H518.072L520.213 269.744H503.811Z" fill="#808080"/>
<path d="M336.348 295.59L338.489 299.528H350.609L352.75 295.59H336.348Z" fill="#808080"/>
<path d="M392.169 295.59L394.31 299.528H406.43L408.571 295.59H392.169Z" fill="#808080"/>
<path d="M447.99 295.59L450.121 299.528H462.251L464.392 295.59H447.99Z" fill="#808080"/>
<path d="M503.811 295.59L505.942 299.528H518.072L520.213 295.59H503.811Z" fill="#808080"/>
<path d="M324.361 269.744H529.456" stroke="#808080" stroke-miterlimit="10"/>
<path d="M324.361 295.475H529.456" stroke="#808080" stroke-miterlimit="10"/>
<path d="M686.606 216.982L682.391 200.637V196.135H676.436V200.599L672.23 216.943C672.163 217.199 672.155 217.466 672.207 217.725C672.26 217.984 672.371 218.228 672.533 218.437C672.695 218.645 672.903 218.814 673.14 218.93C673.378 219.046 673.639 219.105 673.903 219.104H684.924C685.184 219.103 685.441 219.044 685.675 218.931C685.909 218.817 686.115 218.652 686.277 218.448C686.438 218.244 686.552 218.007 686.609 217.753C686.666 217.499 686.665 217.235 686.606 216.982Z" fill="#BDBDBD"/>
<path d="M683.155 208.723H675.652L673.444 217.326C673.425 217.393 673.422 217.464 673.437 217.533C673.452 217.601 673.484 217.665 673.53 217.718C673.57 217.774 673.623 217.82 673.685 217.852C673.746 217.883 673.814 217.9 673.884 217.899H684.924C684.994 217.898 685.063 217.881 685.126 217.85C685.189 217.818 685.244 217.773 685.287 217.718C685.329 217.663 685.358 217.599 685.371 217.531C685.384 217.463 685.382 217.393 685.363 217.326L683.155 208.723Z" fill="#808080"/>
<path d="M712.031 216.982L707.826 200.637V196.135H701.871V200.599L697.665 216.943C697.597 217.199 697.59 217.466 697.642 217.725C697.695 217.984 697.806 218.228 697.968 218.437C698.13 218.645 698.337 218.814 698.575 218.93C698.812 219.046 699.073 219.105 699.338 219.104H710.358C710.619 219.104 710.875 219.045 711.109 218.931C711.343 218.818 711.548 218.652 711.709 218.448C711.87 218.244 711.983 218.006 712.039 217.752C712.094 217.498 712.092 217.235 712.031 216.982V216.982Z" fill="#BDBDBD"/>
<path d="M708.59 208.723H701.106L698.898 217.326C698.879 217.393 698.876 217.464 698.891 217.533C698.906 217.601 698.938 217.665 698.984 217.718C699.024 217.774 699.077 217.82 699.139 217.852C699.2 217.883 699.269 217.9 699.338 217.899H710.359C710.429 217.898 710.498 217.881 710.561 217.85C710.624 217.818 710.679 217.773 710.722 217.718C710.764 217.663 710.793 217.599 710.806 217.531C710.819 217.463 710.817 217.393 710.798 217.326L708.59 208.723Z" fill="#808080"/>
<path d="M678.997 199.958V151.21" stroke="#BDBDBD" stroke-miterlimit="10"/>
<path d="M738.279 219.075H576.923V314.105H738.279V219.075Z" fill="#DBDBDB"/>
<path d="M733.824 222.851H581.387V314.105H733.824V222.851Z" fill="#BDBDBD"/>
<path d="M662.805 259.631L668.302 267.173H710.836L716.677 259.631H662.805Z" fill="#808080"/>
<path d="M706.755 263.932H673.74V267.173H706.755V263.932Z" fill="#5C5C5C"/>
<path d="M657.892 247.091H630.794V255.301H657.892V247.091Z" fill="#808080"/>
<path d="M673.922 235.984H669.917V245.791H673.922V235.984Z" fill="#263238" stroke="#263238" stroke-miterlimit="10"/>
<path d="M669.544 241.136H674.323C675.287 241.136 676.211 241.518 676.892 242.2C677.573 242.881 677.956 243.805 677.956 244.768V256.238H665.912V244.768C665.912 243.805 666.295 242.881 666.976 242.2C667.657 241.518 668.581 241.136 669.544 241.136Z" fill="#DBDBDB"/>
<path d="M690.439 235.984H686.434V245.791H690.439V235.984Z" fill="#263238" stroke="#263238" stroke-miterlimit="10"/>
<path d="M686.052 241.136H690.831C691.794 241.136 692.718 241.518 693.399 242.2C694.08 242.881 694.463 243.805 694.463 244.768V256.238H682.419V244.768C682.419 243.805 682.802 242.881 683.483 242.2C684.164 241.518 685.088 241.136 686.052 241.136Z" fill="#DBDBDB"/>
<path d="M706.946 235.984H702.941V245.791H706.946V235.984Z" fill="#263238" stroke="#263238" stroke-miterlimit="10"/>
<path d="M702.569 241.136H707.348C708.311 241.136 709.235 241.518 709.916 242.2C710.597 242.881 710.98 243.805 710.98 244.768V256.238H698.927V244.768C698.927 244.29 699.021 243.817 699.204 243.376C699.387 242.935 699.656 242.534 699.994 242.196C700.332 241.859 700.734 241.592 701.176 241.41C701.617 241.228 702.091 241.135 702.569 241.136V241.136Z" fill="#DBDBDB"/>
<path d="M657.892 240.027H630.794V247.091H657.892V240.027Z" fill="#A3A3A3"/>
<path d="M733.824 254.747H581.387V260.922H733.824V254.747Z" fill="#DBDBDB"/>
<path d="M637.342 283.221H626.789V315.386H637.342V283.221Z" fill="#263238" stroke="#263238" stroke-linecap="round" stroke-linejoin="round"/>
<path d="M656.631 267.527H607.491V308.178H656.631V267.527Z" fill="#545454"/>
<path d="M653.209 270.356H610.913V305.349H653.209V270.356Z" fill="white"/>
<path d="M619.984 278.719L633.06 288.144L624.247 293.009" stroke="#828282" stroke-miterlimit="10"/>
<path d="M639.445 279.331L633.06 288.144L636.099 299.7" stroke="#828282" stroke-miterlimit="10"/>
<path d="M633.06 288.144L646.747 296.058" stroke="#828282" stroke-miterlimit="10"/>
<path d="M621.169 277.955C621.169 278.586 620.982 279.203 620.631 279.728C620.28 280.253 619.782 280.663 619.198 280.904C618.615 281.146 617.973 281.209 617.354 281.086C616.734 280.963 616.166 280.659 615.719 280.212C615.273 279.766 614.969 279.197 614.845 278.578C614.722 277.958 614.785 277.316 615.027 276.733C615.269 276.15 615.678 275.651 616.203 275.3C616.728 274.949 617.345 274.762 617.977 274.762C618.823 274.762 619.635 275.099 620.234 275.697C620.833 276.296 621.169 277.108 621.169 277.955V277.955Z" fill="#49BDCD"/>
<path d="M627.439 293.009C627.439 293.641 627.252 294.258 626.901 294.783C626.551 295.308 626.052 295.717 625.469 295.959C624.885 296.2 624.243 296.264 623.624 296.14C623.005 296.017 622.436 295.713 621.989 295.267C621.543 294.82 621.239 294.251 621.116 293.632C620.993 293.013 621.056 292.371 621.297 291.787C621.539 291.204 621.948 290.706 622.473 290.355C622.998 290.004 623.615 289.817 624.247 289.817C625.094 289.817 625.906 290.153 626.504 290.752C627.103 291.35 627.439 292.163 627.439 293.009V293.009Z" fill="#49BDCD"/>
<path d="M642.637 279.293C642.637 279.924 642.45 280.542 642.099 281.067C641.748 281.592 641.25 282.001 640.666 282.242C640.083 282.484 639.441 282.547 638.822 282.424C638.203 282.301 637.634 281.997 637.187 281.55C636.741 281.104 636.437 280.535 636.313 279.916C636.19 279.297 636.254 278.655 636.495 278.071C636.737 277.488 637.146 276.989 637.671 276.639C638.196 276.288 638.813 276.1 639.445 276.1C640.291 276.1 641.103 276.437 641.702 277.036C642.301 277.634 642.637 278.446 642.637 279.293Z" fill="#49BDCD"/>
<path d="M649.94 296.058C649.938 296.689 649.749 297.306 649.397 297.829C649.045 298.353 648.546 298.761 647.962 299.001C647.379 299.241 646.737 299.303 646.119 299.179C645.5 299.054 644.932 298.75 644.487 298.303C644.041 297.856 643.738 297.287 643.615 296.668C643.493 296.049 643.557 295.408 643.799 294.825C644.041 294.242 644.45 293.744 644.975 293.394C645.499 293.043 646.116 292.856 646.747 292.856C647.167 292.856 647.583 292.939 647.971 293.1C648.359 293.261 648.712 293.497 649.008 293.795C649.305 294.092 649.54 294.445 649.7 294.834C649.859 295.222 649.941 295.638 649.94 296.058V296.058Z" fill="#49BDCD"/>
<path d="M636.099 302.893C637.863 302.893 639.292 301.463 639.292 299.7C639.292 297.937 637.863 296.508 636.099 296.508C634.336 296.508 632.907 297.937 632.907 299.7C632.907 301.463 634.336 302.893 636.099 302.893Z" fill="#49BDCD"/>
<path d="M703.716 294.548H690.85V297.377H703.716V294.548Z" fill="#263238" stroke="#263238" stroke-linecap="round" stroke-linejoin="round"/>
<path d="M673.492 315.127V308.79C673.492 307.872 673.689 306.966 674.068 306.13C674.447 305.294 675 304.549 675.69 303.944L683.519 297.119H712.079L719.525 303.954C720.178 304.557 720.699 305.288 721.056 306.103C721.413 306.917 721.598 307.796 721.599 308.685V316.16L673.492 315.127Z" fill="#C4C4C4"/>
<path d="M711.305 305.225C711.305 307.853 705.149 310.004 697.541 310.004C689.932 310.004 683.777 307.873 683.777 305.225C683.777 302.577 689.942 300.446 697.541 300.446C705.14 300.446 711.305 302.596 711.305 305.225Z" fill="#DBDBDB"/>
<path d="M738.919 314.095H576.923V378.318H738.919V314.095Z" fill="#DBDBDB"/>
<path d="M576.875 347.549H738.193" stroke="#808080" stroke-miterlimit="10"/>
<path d="M738.919 314.095H688.537V378.318H738.919V314.095Z" fill="#BDBDBD"/>
<path d="M742.054 314.095H573.788V320.27H742.054V314.095Z" fill="#808080"/>
<path d="M656.124 320.327L658.667 325.02H673.119L675.671 320.327H656.124Z" fill="#808080"/>
<path d="M656.124 347.349L658.667 352.042H673.119L675.671 347.349H656.124Z" fill="#808080"/>
<path d="M601.832 320.327L604.375 325.02H618.837L621.389 320.327H601.832Z" fill="#808080"/>
<path d="M601.832 347.349L604.375 352.042H618.837L621.389 347.349H601.832Z" fill="#808080"/>
<path d="M675.795 167.937H720.576" stroke="#BDBDBD" stroke-miterlimit="10"/>
<path d="M671.828 167.937H675.795" stroke="#BDBDBD" stroke-width="3" stroke-miterlimit="10"/>
<path d="M704.805 168.415V198.524" stroke="#BDBDBD" stroke-miterlimit="10"/>
<path d="M359.689 258.522H351.804V267.44H359.689V258.522Z" fill="#263238" stroke="#263238" stroke-miterlimit="10"/>
<path d="M362.777 255.091H347.684V260.578H362.777V255.091Z" fill="#263238" stroke="#263238" stroke-miterlimit="10"/>
<path d="M372.383 264.697H338.422V355.263H372.383V264.697Z" fill="white" stroke="#263238" stroke-miterlimit="10"/>
<path d="M351.632 300.379C356.462 300.379 360.378 296.463 360.378 291.633C360.378 286.803 356.462 282.887 351.632 282.887C346.801 282.887 342.886 286.803 342.886 291.633C342.886 296.463 346.801 300.379 351.632 300.379Z" fill="#263238" stroke="#263238" stroke-miterlimit="10"/>
<path d="M422.957 378.327L407.376 358.771H362.433L346.977 378.327H422.957Z" fill="white" stroke="#263238" stroke-miterlimit="10"/>
<path d="M355.57 353.208H427.956V353.619C427.956 355.056 427.385 356.435 426.368 357.451C425.352 358.468 423.973 359.039 422.536 359.039H360.989C359.552 359.039 358.173 358.468 357.157 357.451C356.141 356.435 355.57 355.056 355.57 353.619V353.208Z" fill="white" stroke="#263238" stroke-miterlimit="10"/>
<path d="M398.733 233.873L385.095 242.76L386.875 245.491L400.513 236.604L398.733 233.873Z" fill="white" stroke="#263238" stroke-miterlimit="10"/>
<path d="M406.456 224.53L393.731 232.822L399.064 241.006L411.789 232.714L406.456 224.53Z" fill="#263238" stroke="#263238" stroke-miterlimit="10"/>
<path d="M356.946 212.212H353.859V222.162H356.946V212.212Z" fill="#263238" stroke="#263238" stroke-miterlimit="10"/>
<path d="M358.323 221.474H352.148V241.031H358.323V221.474Z" fill="white" stroke="#263238" stroke-miterlimit="10"/>
<path d="M362.433 238.966H348.028V250.283H362.433V238.966Z" fill="white" stroke="#263238" stroke-miterlimit="10"/>
<path d="M385.717 233.556L369.305 247.416L332.878 250.627L333.7 259.994L377.659 256.123L392.513 245.036L385.717 233.556Z" fill="white" stroke="#263238" stroke-miterlimit="10"/>
<path d="M654.796 124.963L653.161 142.168C653.161 142.168 643.67 141.508 640.888 135.945C638.107 130.382 639.33 123.089 639.33 123.089L640.544 116.399C642.119 115.651 643.855 115.306 645.596 115.392C647.337 115.479 649.03 115.996 650.523 116.896C651.951 117.669 653.118 118.848 653.879 120.283C654.639 121.719 654.958 123.347 654.796 124.963Z" fill="#B5B5B5" stroke="#263238" stroke-miterlimit="10"/>
<path d="M587.304 180.096L622.096 171.617L639.302 123.089C639.302 123.089 643.393 130.688 646.317 134.196C649.242 137.704 654.796 140.887 654.796 140.887C654.796 140.887 648.946 172.755 646.9 182.944C644.855 193.133 644.568 194.93 641.93 197.282C639.292 199.633 607.787 219.572 607.787 219.572C607.787 219.572 618.302 239.157 619.487 252.902C620.672 266.647 621.532 282.724 621.532 282.724C621.532 282.724 595.801 241.786 586.453 229.799C577.105 217.813 573.291 199.69 575.337 190.333C577.382 180.975 587.304 180.096 587.304 180.096Z" fill="white" stroke="#263238" stroke-miterlimit="10"/>
<path d="M599.672 189.425L607.778 219.572L613.704 183.871" stroke="#263238" stroke-miterlimit="10"/>
<path d="M623.081 172.468C625.883 173.635 628.33 175.519 630.175 177.929C632.021 180.34 633.2 183.193 633.595 186.204" stroke="#263238" stroke-miterlimit="10"/>
<path d="M629.494 172.468C629.494 172.468 640.601 174.8 641.184 186.5" stroke="#263238" stroke-miterlimit="10"/>
<path d="M588.269 191.47L602.884 221.876L599.672 227.429L606.984 233.279L609.03 244.682" stroke="#263238" stroke-miterlimit="10"/>
<path d="M536.004 153.867C536.004 153.867 518.799 159.43 513.197 170.241C507.596 181.052 521.093 200.656 523.138 207.959C525.184 215.261 522.259 217.899 519.63 215.854C517.002 213.808 514.077 217.899 517.002 222.545C519.926 227.19 536.004 223.711 541.261 221.082C546.518 218.454 545.361 200.904 542.437 189.539C539.512 178.175 536.004 165.271 537.753 159.717C539.502 154.164 536.004 153.867 536.004 153.867Z" fill="#263238" stroke="#263238" stroke-miterlimit="10"/>
<path d="M590.525 130.105C590.525 130.105 599.003 140.333 599.586 144.443C599.94 146.568 600.04 148.727 599.883 150.876C599.883 150.876 603.974 155.55 604.853 156.133C605.732 156.716 608.676 158.475 606.899 160.816C606.329 161.516 605.616 162.086 604.809 162.489C604.001 162.891 603.117 163.116 602.215 163.149C602.215 163.149 602.511 172.22 601.632 176.311C600.752 180.402 599.003 181.864 595.782 182.151C592.561 182.438 588.479 182.447 588.479 182.447L585.258 198.821L589.349 220.165L558.944 187.112C558.944 187.112 561.907 175.106 561.907 172.793C561.907 170.48 557.52 166.102 561.324 153.781C565.128 141.461 590.525 130.105 590.525 130.105Z" fill="#B5B5B5" stroke="#263238" stroke-miterlimit="10"/>
<path d="M560.951 161.39C560.951 161.39 566.218 163.139 567.642 159.344C569.066 155.55 566.763 150.866 574.075 146.766C581.387 142.665 594.32 139.74 596.958 133.049C599.596 126.358 596.661 119.304 592.57 118.425C588.479 117.546 583.509 119.887 575.614 120.184C567.719 120.48 544.578 120.356 537.266 131.463C529.953 142.569 537.017 162.575 539.062 166.963C541.108 171.35 541.108 182.753 549.577 183.336C558.045 183.919 563.914 177.486 564.488 172.822C565.061 168.157 560.951 161.39 560.951 161.39Z" fill="#263238" stroke="#263238" stroke-miterlimit="10"/>
<g opacity="0.5">
<path opacity="0.5" d="M558.944 157.903L601.097 143.566C601.097 143.566 608.695 148.24 603.438 154.386L581.798 161.402L559.24 160.771L558.944 157.903Z" fill="white"/>
</g>
<path d="M558.944 157.901L601.097 143.564C601.097 143.564 608.695 148.238 603.438 154.384L581.798 161.4L559.24 160.769L558.944 157.901Z" stroke="#263238" stroke-miterlimit="10"/>
<path d="M558.944 157.882L601.049 143.554" stroke="#263238" stroke-width="2" stroke-miterlimit="10" stroke-linecap="round"/>
<path d="M577.363 152.615L581.75 161.39" stroke="#263238" stroke-miterlimit="10"/>
<path d="M566.552 163.435C565.673 163.435 558.074 153.198 554.27 156.123C550.466 159.048 553.974 169.572 558.657 171.617C563.341 173.663 567.136 168.693 567.136 168.693" fill="#B5B5B5"/>
<path d="M566.552 163.435C565.673 163.435 558.074 153.198 554.27 156.123C550.466 159.048 553.974 169.572 558.657 171.617C563.341 173.663 567.136 168.693 567.136 168.693" stroke="#263238" stroke-miterlimit="10"/>
<path d="M594.912 151.736C594.912 153.189 594.386 154.374 593.736 154.374C593.086 154.374 592.57 153.189 592.57 151.736C592.57 150.283 593.096 149.107 593.736 149.107C594.377 149.107 594.912 150.254 594.912 151.736Z" fill="#263238"/>
<path d="M558.084 183.604C558.084 183.604 573.281 196.183 581.76 209.918C590.238 223.653 611.878 248.219 615.386 256.41C618.894 264.602 621.819 273.07 621.819 280.086C621.819 287.102 622.402 340.304 622.402 341.489V378.328H532.63C532.63 378.328 538.193 301.43 538.193 285.057C538.193 268.683 531.167 253.772 536.434 230.383C541.701 206.993 550.437 193.544 558.084 183.604Z" fill="white" stroke="#263238" stroke-miterlimit="10"/>
<path d="M552.224 192.082L584.675 236.815L592.857 234.187L592.274 244.128L612.748 254.948" stroke="#263238" stroke-miterlimit="10"/>
<path d="M613.522 339.989H566.304V347.54H609.747" stroke="#263238" stroke-miterlimit="10"/>
<path d="M661.467 143.564H665.883V156.381C665.883 156.926 665.667 157.449 665.281 157.834C664.896 158.22 664.373 158.436 663.828 158.436H663.513C662.968 158.436 662.445 158.22 662.06 157.834C661.674 157.449 661.458 156.926 661.458 156.381V143.564H661.467Z" fill="white" stroke="#263238" stroke-miterlimit="10"/>
<path d="M666.954 140.839H660.416V145.255H666.954V140.839Z" fill="white" stroke="#263238" stroke-miterlimit="10"/>
<path d="M686.061 117.268C686.061 117.268 688.355 120.872 688.021 123.003C687.686 125.135 684.589 134.473 683.605 134.626C682.62 134.779 682.458 133.671 682.783 130.373C683.108 127.075 683.605 124.972 683.605 123.988C683.605 123.003 684.255 115.309 686.061 117.268Z" fill="#49BDCD" stroke="#263238" stroke-linecap="round" stroke-linejoin="round"/>
<path d="M642.035 112.852C642.035 112.852 638.269 119.4 641.079 123.156C643.89 126.913 649.921 127.257 649.921 127.257C649.921 127.257 650.877 134.617 652.377 135.764C653.878 136.911 657.443 141.986 657.94 143.783C658.437 145.58 661.869 143.296 661.869 141.814C661.869 140.333 659.412 134.454 658.753 132.82C658.093 131.185 659.575 126.76 660.062 125.288C660.28 124.536 660.602 123.819 661.018 123.156C661.018 123.156 665.797 127.744 666.256 130.363C666.715 132.982 665.434 142.636 666.744 143.745C668.053 144.854 671.523 144.567 672.144 142.598C672.765 140.629 673.951 129.216 673.951 127.219C673.951 125.221 670.835 118.54 670.835 118.54C670.835 118.54 675.91 123.615 676.073 125.412C676.235 127.209 674.763 138.67 675.585 138.995C676.086 139.29 676.663 139.433 677.244 139.404C677.825 139.375 678.385 139.176 678.854 138.832C679.783 137.778 680.506 136.559 680.986 135.238C680.986 135.238 684.255 127.544 685.564 123.94C686.874 120.337 688.021 116.293 685.077 114.774C680.677 112.482 676.141 110.462 671.494 108.723C663.15 105.445 651.364 102.988 647.111 106.104C642.857 109.22 642.035 112.852 642.035 112.852Z" fill="#49BDCD" stroke="#263238" stroke-linecap="round" stroke-linejoin="round"/>
<path d="M649.892 127.257L649.233 115.471" stroke="#263238" stroke-miterlimit="10"/>
<path d="M649.73 122.994C649.73 122.994 643.182 122.831 642.523 114.487" stroke="#263238" stroke-miterlimit="10"/>
<path d="M682.783 130.363C682.783 130.363 684.914 124.141 683.117 121.197C681.32 118.253 674.438 113.665 674.438 113.665" stroke="#263238" stroke-miterlimit="10"/>
<path d="M636.826 227.907C637.399 227.515 647.589 216.752 647.78 215.988C647.971 215.223 648.162 204.842 649.319 202.539C650.475 200.235 654.308 193.497 654.509 191.384C654.71 189.272 654.7 182.16 654.509 179.666C654.318 177.171 656.812 176.97 658.542 179.283C660.273 181.596 660.655 184.856 660.655 187.733C660.655 190.61 660.846 192.923 661.228 193.468C661.611 194.013 664.88 196.928 666.419 197.291C667.957 197.655 677.181 193.057 679.877 192.101C682.572 191.145 684.293 183.26 684.656 182.485C685.019 181.711 685.239 175.957 685.43 174.609C685.621 173.261 688.116 171.531 689.082 174.8C690.047 178.069 689.655 185.754 689.464 187.867C689.273 189.979 689.464 194.405 688.508 195.561C687.552 196.718 681.397 202.09 680.861 202.864C680.326 203.638 677.994 211.122 677.21 212.279C676.426 213.435 669.907 215.93 665.491 218.616C662.296 220.671 659.275 222.986 656.459 225.536C656.815 225.929 657.013 226.44 657.013 226.97C657.013 227.5 656.815 228.012 656.459 228.404C655.325 229.384 654.032 230.163 652.635 230.708L648.602 240.323L636.826 227.907Z" fill="#B5B5B5" stroke="#263238" stroke-miterlimit="10"/>
<path d="M677.181 212.384C677.956 211.228 680.259 203.782 680.833 202.969C681.406 202.157 687.524 196.813 688.479 195.666C689.435 194.519 689.254 190.094 689.435 187.972C689.617 185.85 690.009 178.175 689.053 174.906C688.097 171.637 685.593 173.367 685.402 174.714C685.21 176.062 685.019 181.826 684.627 182.591C684.235 183.355 682.515 191.241 679.848 192.206C677.181 193.172 667.929 197.779 666.39 197.397C664.851 197.014 661.611 194.128 661.2 193.573C660.789 193.019 660.626 190.706 660.626 187.838C660.626 184.971 660.244 181.692 658.514 179.388C656.784 177.085 654.279 177.267 654.48 179.771C654.681 182.275 654.671 189.329 654.48 191.489C654.289 193.65 650.437 200.331 649.29 202.644C648.143 204.957 647.933 215.252 647.78 215.988C646.037 218.236 644.16 220.378 642.159 222.401L652.415 231.185L652.578 230.784C653.974 230.239 655.267 229.46 656.401 228.48C656.758 228.088 656.956 227.577 656.956 227.047C656.956 226.516 656.758 226.005 656.401 225.613C659.218 223.063 662.239 220.748 665.434 218.693C669.917 215.988 676.417 213.493 677.181 212.384Z" fill="#49BDCD" stroke="#263238" stroke-linecap="round" stroke-linejoin="round"/>
<path d="M680.833 202.921L674.304 207.72" stroke="#263238" stroke-miterlimit="10"/>
<path d="M551.393 214.019C551.393 214.019 561.334 212.26 567.183 216.934C573.033 221.608 575.079 230.383 575.365 231.271C575.652 232.16 603.094 257.309 603.094 257.309L637.59 225.431L654.557 242.101C654.557 242.101 632.916 269.582 621.81 280.105C610.703 290.629 602.511 295.59 600.466 296.498C598.42 297.406 596.375 296.498 594.033 295.036C591.691 293.573 543.163 244.749 543.163 244.749" fill="white"/>
<path d="M551.393 214.019C551.393 214.019 561.334 212.26 567.183 216.934C573.033 221.608 575.079 230.383 575.365 231.271C575.652 232.16 603.094 257.309 603.094 257.309L637.59 225.431L654.557 242.101C654.557 242.101 632.916 269.582 621.81 280.105C610.703 290.629 602.511 295.59 600.466 296.498C598.42 297.406 596.375 296.498 594.033 295.036C591.691 293.573 543.163 244.749 543.163 244.749" stroke="#263238" stroke-miterlimit="10"/>
<path d="M550.762 234.483C550.762 234.483 559.823 226.005 564.507 225.708C569.19 225.412 572.393 229.216 572.393 229.216" stroke="#263238" stroke-miterlimit="10"/>
<path d="M546.078 227.467C546.078 227.467 557.195 220.155 563.628 223.644" stroke="#263238" stroke-miterlimit="10"/>
<path d="M603.094 257.309C603.094 257.309 595.495 273.386 596.661 280.985" stroke="#263238" stroke-miterlimit="10"/>
<path d="M601.632 258.159C596.575 261.648 592.779 266.677 590.812 272.497" stroke="#263238" stroke-miterlimit="10"/>
<path d="M672.039 164.095H676.455V176.913C676.445 177.45 676.225 177.961 675.843 178.338C675.461 178.715 674.946 178.927 674.409 178.93H674.094C673.549 178.93 673.026 178.713 672.641 178.328C672.255 177.942 672.039 177.42 672.039 176.875V164.095Z" fill="white" stroke="#263238" stroke-miterlimit="10"/>
<path d="M677.526 161.409H670.988V165.825H677.526V161.409Z" fill="white" stroke="#263238" stroke-miterlimit="10"/>
<path d="M680.307 164.095H684.723V176.913C684.723 177.458 684.506 177.981 684.121 178.366C683.736 178.751 683.213 178.968 682.668 178.968H682.343C681.798 178.968 681.275 178.751 680.89 178.366C680.504 177.981 680.288 177.458 680.288 176.913V164.095H680.307Z" fill="white" stroke="#263238" stroke-miterlimit="10"/>
<path d="M685.784 161.409H679.246V165.825H685.784V161.409Z" fill="white" stroke="#263238" stroke-miterlimit="10"/>
<path d="M687.562 170.824H659.498V185.238H687.562V170.824Z" fill="#263238" stroke="#263238" stroke-miterlimit="10"/>
<path d="M403.763 204.288C403.763 204.288 403.429 215.366 405.78 219.734C408.131 224.103 412.155 225.775 412.471 229.474C412.786 233.174 411.123 238.201 413.475 239.549C415.826 240.897 432.591 257.71 437.992 257.347C443.392 256.984 449.118 249.289 449.118 249.289L461.209 257.012L477.325 223.768L466.581 214.028C466.581 214.028 462.213 187.828 456.172 180.44C450.131 173.051 427.631 171.044 416.208 176.416C404.786 181.788 400.762 193.879 398.047 196.23C395.333 198.582 389.665 200.914 392.723 205.292C395.782 209.669 403.763 204.288 403.763 204.288Z" fill="white" stroke="#263238" stroke-miterlimit="10"/>
<path d="M463.541 220.738C464.822 219.782 466.103 217.182 467.154 214.554L466.562 214.028C466.562 214.028 462.194 187.828 456.153 180.44C450.112 173.051 427.611 171.044 416.189 176.416C404.767 181.788 400.743 193.879 398.028 196.23C395.314 198.582 389.665 200.914 392.723 205.292C395.591 209.364 402.731 204.967 403.687 204.336L403.801 204.269C406.919 203.281 409.953 202.044 412.872 200.57C415.59 198.994 418.173 197.197 420.596 195.198C420.596 195.198 413.541 206.955 416.227 210.644C418.913 214.334 426.971 212.661 426.971 212.661C426.971 212.661 432.343 219.715 435.707 218.033C439.072 216.351 434.36 209.975 439.397 207.624C444.434 205.273 448.468 215.347 448.468 217.029C448.468 218.712 460.521 223.089 463.541 220.738Z" fill="#263238" stroke="#263238" stroke-miterlimit="10"/>
<path d="M467.202 214.611L443.727 241.9C443.727 241.9 437.992 241.222 433.987 238.201C429.982 235.181 426.598 227.792 426.598 227.792C426.598 227.792 443.727 208.991 452.454 203.619C460.1 198.926 462.586 198.075 463.092 197.884C462.796 196.747 462.48 195.6 462.136 194.462C460.311 195.265 454.958 197.951 446.394 204.909C437.036 212.556 417.231 232.342 412.28 237.332C412.296 237.762 412.413 238.183 412.623 238.56C412.832 238.937 413.127 239.26 413.484 239.501C415.835 240.839 432.601 257.662 438.001 257.299C439.106 257.193 440.178 256.868 441.156 256.343C442.188 252.157 443.956 245.829 445.39 243.181C447.13 239.998 464.373 221.302 469.057 216.246L467.202 214.611Z" fill="#49BDCD" stroke="#263238" stroke-linecap="round" stroke-linejoin="round"/>
<path d="M437.342 219.075C437.342 219.075 434.321 208.322 438.355 206.314C442.389 204.307 447.416 208.666 448.095 213.359C448.774 218.052 446.413 223.778 446.413 223.778C447.817 226.816 448.286 230.203 447.76 233.508" fill="white"/>
<path d="M437.342 219.075C437.342 219.075 434.321 208.322 438.355 206.314C442.389 204.307 447.416 208.666 448.095 213.359C448.774 218.052 446.413 223.778 446.413 223.778C447.817 226.816 448.286 230.203 447.76 233.508" stroke="#263238" stroke-miterlimit="10"/>
<path d="M420.07 227.381C420.739 228.681 420.729 230.01 420.07 230.354C419.41 230.698 418.311 229.933 417.642 228.633C416.973 227.333 416.982 226.005 417.642 225.661C418.301 225.317 419.401 226.081 420.07 227.381Z" fill="#263238"/>
<path d="M411.391 221.14C411.391 221.14 411.783 216.446 417.451 217.421" stroke="#263238" stroke-miterlimit="10"/>
<path d="M476.675 219.83L451.288 260.31L461.238 267.517L484.56 223.606L476.675 219.83Z" fill="white" stroke="#263238" stroke-miterlimit="10"/>
<path d="M482.849 224.294C482.849 224.294 463.293 258.264 459.517 265.806C455.742 273.348 444.769 291.872 444.081 302.854C443.392 313.837 439.97 378.366 439.97 378.366H518.894C518.894 378.366 524.734 329.312 524.39 310.444C524.046 291.575 519.238 263.78 504.834 244.911C490.429 226.043 482.849 224.294 482.849 224.294Z" fill="white" stroke="#263238" stroke-miterlimit="10"/>
<path d="M489.712 229.436C489.712 229.436 478.041 251.421 470.156 264.085C462.27 276.75 451.985 290.505 449.232 298.41C446.48 306.315 446.48 309.736 446.48 309.736" stroke="#263238" stroke-miterlimit="10"/>
<path d="M388.508 315.892L379.246 309.029C379.246 309.029 374.782 297.712 372.039 294.625C369.296 291.537 365.52 292.216 363.121 289.473C360.722 286.729 357.978 280.555 356.602 279.914C355.226 279.274 352.148 280.947 352.148 283.69C352.148 286.433 355.235 290.897 355.235 291.92V292.952C355.235 292.952 343.564 289.52 342.197 290.553C340.831 291.585 339.454 295.007 340.477 296.727C341.5 298.448 343.564 299.127 343.564 300.503C343.564 301.879 341.165 306.334 342.542 308.045C343.498 309.172 344.663 310.103 345.973 310.788C345.973 310.788 345.973 317.307 348.028 320.05C350.083 322.793 365.864 324.829 370.672 325.546C375.48 326.263 389.54 333.088 389.54 333.088L388.508 315.892Z" fill="#49BDCD" stroke="#263238" stroke-linecap="round" stroke-linejoin="round"/>
<path d="M479.418 256.888C479.418 256.888 464.669 264.085 459.173 282.954C453.677 301.822 450.255 321.379 450.255 321.379C450.255 321.379 446.824 320.69 446.824 322.755C446.859 323.795 446.743 324.835 446.48 325.842L386.797 314.516L385.421 342.646C385.421 342.646 462.949 357.06 467.068 357.06C471.188 357.06 475.671 355.684 477.019 352.281C478.366 348.878 500.685 298.754 500.685 298.754" fill="white"/>
<path d="M479.418 256.888C479.418 256.888 464.669 264.085 459.173 282.954C453.677 301.822 450.255 321.379 450.255 321.379C450.255 321.379 446.824 320.69 446.824 322.755C446.859 323.795 446.743 324.835 446.48 325.842L386.797 314.516L385.421 342.646C385.421 342.646 462.949 357.06 467.068 357.06C471.188 357.06 475.671 355.684 477.019 352.281C478.366 348.878 500.685 298.754 500.685 298.754" stroke="#263238" stroke-miterlimit="10"/>
<path d="M486.281 272.669C486.281 272.669 497.942 279.178 499.997 288.106" stroke="#263238" stroke-miterlimit="10"/>
<path d="M478.042 282.61C479.074 282.61 496.575 283.986 500.341 293.936" stroke="#263238" stroke-miterlimit="10"/>
<path d="M494.167 313.149C494.167 313.149 507.548 306.974 511.668 293.592" stroke="#263238" stroke-miterlimit="10"/>
<path d="M449.577 326.186C449.577 326.186 456.43 338.87 456.086 347.798" stroke="#263238" stroke-miterlimit="10"/>
<path d="M453.687 324.122C453.687 324.122 460.588 325.498 465.367 334.732" stroke="#263238" stroke-miterlimit="10"/>
<path d="M545.935 311.084H533.576C532.415 311.132 531.302 311.562 530.41 312.307C529.518 313.051 528.897 314.07 528.644 315.204L515.883 378.289H536.462L549.223 315.204C549.355 314.709 549.369 314.189 549.263 313.688C549.158 313.186 548.937 312.716 548.617 312.315C548.297 311.915 547.888 311.595 547.422 311.381C546.957 311.167 546.447 311.065 545.935 311.084V311.084Z" fill="#263238" stroke="#263238" stroke-miterlimit="10"/>
<path d="M285 378.328H750.466" stroke="#263238" stroke-miterlimit="10"/>
<path d="M309.192 333.489H317.489V372.344C317.489 373.358 317.086 374.33 316.369 375.047C315.652 375.765 314.68 376.167 313.666 376.167H313.073C312.059 376.167 311.087 375.765 310.37 375.047C309.653 374.33 309.25 373.358 309.25 372.344V333.489H309.192Z" fill="white" stroke="#263238" stroke-linecap="round" stroke-linejoin="round"/>
<path d="M309.192 349.232V372.009C309.192 373.11 309.629 374.165 310.407 374.943C311.185 375.721 312.24 376.158 313.341 376.158C314.441 376.158 315.496 375.721 316.274 374.943C317.052 374.165 317.489 373.11 317.489 372.009V349.232H309.192Z" fill="#49BDCD" stroke="#263238" stroke-linecap="round" stroke-linejoin="round"/>
<path d="M318.951 332.266H307.72V340.075H318.951V332.266Z" fill="white" stroke="#263238" stroke-linecap="round" stroke-linejoin="round"/>
<path d="M329.485 376.186C328.937 376.188 328.394 376.08 327.888 375.871C327.381 375.661 326.922 375.353 326.535 374.965C326.149 374.576 325.843 374.115 325.635 373.608C325.428 373.101 325.323 372.557 325.327 372.009V333.489H333.633V372.009C333.637 372.557 333.532 373.099 333.326 373.606C333.119 374.112 332.814 374.573 332.428 374.961C332.043 375.35 331.584 375.658 331.079 375.868C330.574 376.078 330.032 376.186 329.485 376.186V376.186Z" fill="white" stroke="#263238" stroke-linecap="round" stroke-linejoin="round"/>
<path d="M325.327 349.232V372.009C325.378 373.076 325.838 374.083 326.611 374.82C327.385 375.557 328.412 375.968 329.48 375.968C330.548 375.968 331.576 375.557 332.349 374.82C333.122 374.083 333.582 373.076 333.633 372.009V349.232H325.327Z" fill="#49BDCD" stroke="#263238" stroke-linecap="round" stroke-linejoin="round"/>
<path d="M335.096 332.266H323.865V340.075H335.096V332.266Z" fill="white" stroke="#263238" stroke-linecap="round" stroke-linejoin="round"/>
<path d="M345.619 376.186C345.072 376.186 344.53 376.078 344.025 375.868C343.52 375.658 343.061 375.35 342.676 374.961C342.29 374.573 341.985 374.112 341.779 373.606C341.572 373.099 341.467 372.557 341.471 372.009V333.489H349.777V372.009C349.781 372.557 349.676 373.101 349.469 373.608C349.262 374.115 348.956 374.576 348.569 374.965C348.182 375.353 347.723 375.661 347.216 375.871C346.71 376.08 346.167 376.188 345.619 376.186V376.186Z" fill="white" stroke="#263238" stroke-linecap="round" stroke-linejoin="round"/>
<path d="M341.471 349.232V372.009C341.471 373.11 341.908 374.165 342.686 374.943C343.464 375.721 344.519 376.158 345.619 376.158C346.165 376.159 346.705 376.053 347.21 375.845C347.714 375.637 348.173 375.332 348.559 374.946C348.945 374.561 349.252 374.103 349.461 373.599C349.67 373.095 349.777 372.555 349.777 372.009V349.232H341.471Z" fill="#49BDCD" stroke="#263238" stroke-linecap="round" stroke-linejoin="round"/>
<path d="M351.24 332.266H340.009V340.075H351.24V332.266Z" fill="white" stroke="#263238" stroke-linecap="round" stroke-linejoin="round"/>
<path d="M361.764 376.186C361.216 376.186 360.675 376.078 360.169 375.868C359.664 375.658 359.206 375.35 358.82 374.961C358.434 374.573 358.129 374.112 357.923 373.606C357.716 373.099 357.611 372.557 357.615 372.009V333.489H365.96V372.009C365.963 372.561 365.857 373.107 365.648 373.617C365.438 374.127 365.129 374.589 364.738 374.978C364.347 375.367 363.883 375.674 363.372 375.882C362.862 376.089 362.315 376.193 361.764 376.186V376.186Z" fill="white" stroke="#263238" stroke-linecap="round" stroke-linejoin="round"/>
<path d="M357.615 349.232V372.009C357.615 373.116 358.055 374.177 358.837 374.96C359.62 375.742 360.681 376.182 361.787 376.182C362.894 376.182 363.955 375.742 364.738 374.96C365.52 374.177 365.96 373.116 365.96 372.009V349.232H357.615Z" fill="#49BDCD" stroke="#263238" stroke-linecap="round" stroke-linejoin="round"/>
<path d="M367.384 332.266H356.153V340.075H367.384V332.266Z" fill="white" stroke="#263238" stroke-linecap="round" stroke-linejoin="round"/>
<path d="M374.4 344.29H302.11V346.747H374.4V372.363H298.602V378.328H379.313V376.922V372.363V346.747V344.29H374.4Z" fill="white" stroke="#263238" stroke-linecap="round" stroke-linejoin="round"/>
<path d="M645.4 373.462L635.946 336.748V326.712H622.565V336.748L613.111 373.462C612.962 374.038 612.947 374.64 613.067 375.223C613.187 375.805 613.439 376.353 613.804 376.822C614.169 377.292 614.636 377.672 615.171 377.933C615.705 378.194 616.292 378.329 616.887 378.328H641.624C642.219 378.329 642.806 378.194 643.34 377.933C643.875 377.672 644.342 377.292 644.707 376.822C645.072 376.353 645.324 375.805 645.444 375.223C645.564 374.64 645.549 374.038 645.4 373.462V373.462Z" fill="white" stroke="#263238" stroke-miterlimit="10"/>
<path d="M637.657 354.909H620.854L615.893 374.179C615.849 374.329 615.842 374.488 615.874 374.642C615.906 374.795 615.975 374.938 616.075 375.059C616.165 375.186 616.286 375.289 616.426 375.359C616.566 375.429 616.721 375.464 616.877 375.46H641.624C641.782 375.466 641.939 375.432 642.081 375.362C642.223 375.292 642.345 375.188 642.437 375.059C642.537 374.938 642.605 374.795 642.637 374.642C642.669 374.488 642.662 374.329 642.618 374.179L637.657 354.909Z" fill="#49BDCD"/>
<path d="M672.622 343.611V322.411H660.196V343.611C656.251 345.069 652.944 347.869 650.855 351.519C648.766 355.169 648.027 359.438 648.767 363.578C649.508 367.718 651.681 371.466 654.906 374.165C658.131 376.865 662.203 378.344 666.409 378.344C670.615 378.344 674.687 376.865 677.912 374.165C681.137 371.466 683.31 367.718 684.051 363.578C684.792 359.438 684.053 355.169 681.963 351.519C679.874 347.869 676.567 345.069 672.622 343.611V343.611Z" fill="white" stroke="#263238" stroke-miterlimit="10"/>
<path d="M651.068 355.865C650.357 358.255 650.214 360.777 650.65 363.231C651.087 365.685 652.09 368.004 653.58 370.002C655.071 372 657.007 373.622 659.235 374.74C661.463 375.858 663.921 376.44 666.414 376.44C668.906 376.44 671.365 375.858 673.593 374.74C675.821 373.622 677.757 372 679.247 370.002C680.738 368.004 681.741 365.685 682.177 363.231C682.613 360.777 682.47 358.255 681.76 355.865H651.068Z" fill="#49BDCD"/>
<path d="M709.46 355.416V316.571H701.259V355.416C698.654 356.378 696.47 358.226 695.09 360.636C693.71 363.047 693.222 365.865 693.711 368.599C694.2 371.333 695.634 373.808 697.764 375.59C699.894 377.373 702.582 378.349 705.359 378.349C708.137 378.349 710.825 377.373 712.955 375.59C715.084 373.808 716.519 371.333 717.008 368.599C717.497 365.865 717.009 363.047 715.629 360.636C714.249 358.226 712.065 356.378 709.46 355.416V355.416Z" fill="white" stroke="#263238" stroke-miterlimit="10"/>
<path d="M695.237 363.502C694.944 364.473 694.796 365.481 694.798 366.494C694.755 367.909 694.997 369.317 695.509 370.636C696.021 371.956 696.792 373.159 697.778 374.174C698.763 375.19 699.942 375.997 701.245 376.548C702.549 377.1 703.949 377.384 705.364 377.384C706.779 377.384 708.18 377.1 709.483 376.548C710.786 375.997 711.966 375.19 712.951 374.174C713.937 373.159 714.708 371.956 715.22 370.636C715.732 369.317 715.974 367.909 715.931 366.494C715.933 365.481 715.784 364.473 715.491 363.502H695.237Z" fill="#49BDCD"/>
<path d="M247.239 387.762H229.038V387.9H247.239V387.762Z" fill="#A3C1C6"/>
<path d="M182.019 389.257H177.244V389.395H182.019V389.257Z" fill="#A3C1C6"/>
<path d="M228.489 382.663H217.943V382.8H228.489V382.663Z" fill="#A3C1C6"/>
<path d="M52.5638 383.586H28.829V383.723H52.5638V383.586Z" fill="#A3C1C6"/>
<path d="M60.9388 383.586H57.4602V383.723H60.9388V383.586Z" fill="#A3C1C6"/>
<path d="M123.73 385.905H72.2484V386.042H123.73V385.905Z" fill="#A3C1C6"/>
<path d="M130.242 354.411H24.1359C23.3037 354.411 22.5056 354.08 21.9171 353.492C21.3286 352.903 20.998 352.105 20.998 351.273V202.11C21.0053 201.283 21.3391 200.492 21.9267 199.909C22.5144 199.327 23.3084 199 24.1359 199H130.242C131.074 199 131.872 199.331 132.46 199.919C133.049 200.508 133.379 201.306 133.379 202.138V351.273C133.379 352.105 133.049 352.903 132.46 353.492C131.872 354.08 131.074 354.411 130.242 354.411V354.411ZM24.1359 199.11C23.3406 199.111 22.5782 199.428 22.0158 199.99C21.4535 200.553 21.1369 201.315 21.1354 202.11V351.273C21.1369 352.068 21.4535 352.83 22.0158 353.393C22.5782 353.955 23.3406 354.272 24.1359 354.273H130.242C131.037 354.272 131.799 353.955 132.362 353.393C132.924 352.83 133.241 352.068 133.242 351.273V202.11C133.241 201.315 132.924 200.553 132.362 199.99C131.799 199.428 131.037 199.111 130.242 199.11H24.1359Z" fill="#A3C1C6"/>
<path d="M249.113 354.411H142.996C142.165 354.409 141.367 354.078 140.779 353.49C140.191 352.902 139.86 352.105 139.859 351.273V202.11C139.867 201.283 140.202 200.493 140.789 199.911C141.376 199.329 142.169 199.001 142.996 199H249.113C249.939 199.003 250.73 199.331 251.315 199.913C251.901 200.495 252.233 201.285 252.24 202.11V351.273C252.24 352.103 251.911 352.9 251.325 353.488C250.739 354.076 249.943 354.408 249.113 354.411V354.411ZM142.996 199.11C142.201 199.111 141.439 199.428 140.876 199.99C140.314 200.553 139.997 201.315 139.996 202.11V351.273C139.997 352.068 140.314 352.83 140.876 353.393C141.439 353.955 142.201 354.272 142.996 354.273H249.113C249.908 354.272 250.671 353.955 251.233 353.393C251.796 352.83 252.112 352.068 252.114 351.273V202.11C252.112 201.315 251.796 200.553 251.233 199.99C250.671 199.428 249.908 199.111 249.113 199.11H142.996Z" fill="#A3C1C6"/>
<path d="M274.771 378.92H0V379.058H274.771V378.92Z" fill="#A3C1C6"/>
<path d="M194.313 378.832V252.08H190.378V378.832H194.313Z" fill="#F0F0F0"/>
<path d="M236.254 378.838V252.086H232.319V378.838H236.254Z" fill="#F5F5F5"/>
<path d="M42.4522 378.838L42.4522 252.086H38.5174L38.5174 378.838H42.4522Z" fill="#A3C1C6"/>
<path d="M84.3933 356.625H38.5174V362.423H84.3933V356.625Z" fill="#A3C1C6"/>
<path d="M236.254 356.625H84.3933V362.423H236.254V356.625Z" fill="#F5F5F5"/>
<path d="M84.3933 304.353H38.5174V310.15H84.3933V304.353Z" fill="#A3C1C6"/>
<path d="M236.254 304.353H84.3933V310.15H236.254V304.353Z" fill="#F5F5F5"/>
<path d="M84.3933 252.08H38.5174V257.878H84.3933V252.08Z" fill="#A3C1C6"/>
<path d="M236.254 252.08H84.3933V257.878H236.254V252.08Z" fill="#F5F5F5"/>
<path d="M84.3878 378.832L84.3878 252.08H80.453L80.453 378.832H84.3878Z" fill="#A3C1C6"/>
<path d="M64.8295 266.22H53.5639L53.0144 260.906H65.3791L64.8295 266.22Z" fill="#A3C1C6"/>
<path d="M53.3826 271.386H65.0164C65.8882 271.386 66.7514 271.557 67.5568 271.891C68.3622 272.225 69.0941 272.714 69.7105 273.33C70.3269 273.947 70.8159 274.678 71.1495 275.484C71.4831 276.289 71.6549 277.152 71.6549 278.024V296.599C71.6549 297.646 71.4486 298.683 71.0479 299.65C70.6472 300.618 70.0598 301.497 69.3194 302.237C68.5789 302.978 67.6999 303.565 66.7325 303.966C65.765 304.366 64.7281 304.573 63.681 304.573H54.718C52.6032 304.573 50.575 303.733 49.0796 302.237C47.5842 300.742 46.7441 298.714 46.7441 296.599V278.024C46.7441 276.264 47.4435 274.575 48.6885 273.33C49.9334 272.085 51.6219 271.386 53.3826 271.386Z" fill="#F5F5F5"/>
<path d="M65.7912 266.588H52.6022V276.332H65.7912V266.588Z" fill="#F5F5F5"/>
<path d="M67.9894 266.594H50.404C50.1126 266.594 49.833 266.478 49.6269 266.272C49.4208 266.066 49.305 265.786 49.305 265.495C49.305 265.203 49.4208 264.924 49.6269 264.717C49.833 264.511 50.1126 264.396 50.404 264.396H67.9894C68.2809 264.396 68.5605 264.511 68.7666 264.717C68.9727 264.924 69.0885 265.203 69.0885 265.495C69.0885 265.786 68.9727 266.066 68.7666 266.272C68.5605 266.478 68.2809 266.594 67.9894 266.594Z" fill="#F5F5F5"/>
<path d="M128.197 330.797H119.597L119.179 326.741H128.62L128.197 330.797Z" fill="#A3C1C6"/>
<path d="M128.928 331.077H118.861V338.512H128.928V331.077Z" fill="#F5F5F5"/>
<path d="M128.763 356.961C129.914 356.967 131.025 356.544 131.879 355.773C132.733 355.002 133.268 353.94 133.379 352.795C133.379 352.564 133.379 352.339 133.379 352.103V341.381C133.381 339.624 132.686 337.938 131.447 336.693C130.208 335.448 128.525 334.744 126.768 334.737H121.026C119.265 334.737 117.577 335.436 116.332 336.681C115.087 337.926 114.387 339.615 114.387 341.375V352.103C114.387 352.339 114.387 352.564 114.387 352.795C114.5 353.94 115.036 355.003 115.891 355.773C116.746 356.544 117.858 356.967 119.009 356.961H128.763Z" fill="#F0F0F0"/>
<path d="M130.61 331.077H117.184C116.961 331.077 116.748 330.988 116.59 330.831C116.432 330.673 116.344 330.459 116.344 330.236C116.345 330.014 116.434 329.802 116.592 329.645C116.749 329.489 116.962 329.401 117.184 329.401H130.61C130.72 329.4 130.829 329.421 130.931 329.463C131.033 329.505 131.126 329.566 131.204 329.644C131.282 329.721 131.344 329.814 131.386 329.915C131.429 330.017 131.451 330.126 131.451 330.236C131.451 330.347 131.43 330.457 131.388 330.559C131.346 330.661 131.284 330.754 131.206 330.832C131.128 330.911 131.035 330.973 130.932 331.015C130.83 331.057 130.72 331.078 130.61 331.077Z" fill="#F0F0F0"/>
<path d="M141.617 356.477H148.695C149.249 356.474 149.788 356.291 150.228 355.955C151.621 354.893 152.644 353.42 153.153 351.744C153.662 350.069 153.632 348.276 153.067 346.618C152.502 344.961 151.43 343.523 150.003 342.508C148.576 341.493 146.866 340.952 145.115 340.962C143.364 340.971 141.661 341.531 140.245 342.561C138.829 343.592 137.773 345.041 137.226 346.705C136.679 348.368 136.669 350.162 137.196 351.831C137.724 353.501 138.763 354.963 140.166 356.01C140.587 356.319 141.096 356.482 141.617 356.477V356.477Z" fill="#F0F0F0"/>
<path d="M147.409 333.951H142.903V345.09H147.409V333.951Z" fill="#F0F0F0"/>
<path d="M147.898 334.578H142.403C142.158 334.578 141.923 334.48 141.75 334.307C141.577 334.134 141.48 333.899 141.48 333.654C141.48 333.41 141.577 333.175 141.75 333.002C141.923 332.828 142.158 332.731 142.403 332.731H147.898C148.143 332.731 148.378 332.828 148.551 333.002C148.724 333.175 148.822 333.41 148.822 333.654V333.654C148.822 333.899 148.724 334.134 148.551 334.307C148.378 334.48 148.143 334.578 147.898 334.578V334.578Z" fill="#F0F0F0"/>
<path d="M154.872 351.591C154.294 351.853 153.644 351.913 153.028 351.76C152.412 351.608 151.865 351.252 151.476 350.751C150.206 349.212 151.053 347.756 151.69 346.189C152.24 344.777 152.438 343.568 151.861 342.134C151.498 341.418 151.172 340.684 150.882 339.936C150.525 338.699 150.784 337.474 151.02 336.243C151.289 334.841 151.767 333.226 151.229 331.846C150.426 329.786 146.437 328.39 144.815 330.231C144.258 330.95 144.007 331.861 144.118 332.764H145.107C145.107 331.154 145.832 329.923 148.223 330.566C152.619 331.797 149.113 337.067 149.998 340.177C150.415 341.65 151.498 342.815 151.278 344.436C151.031 346.321 149.525 347.668 149.954 349.696C150.073 350.262 150.318 350.793 150.671 351.251C151.024 351.71 151.476 352.082 151.993 352.341C152.51 352.601 153.079 352.74 153.658 352.749C154.236 352.758 154.809 352.637 155.334 352.394C155.867 352.125 155.4 351.328 154.872 351.591Z" fill="#A3C1C6"/>
<path d="M150.228 337.128C150.228 337.128 149.882 342.431 147.569 340.101C145.255 337.77 150.228 337.128 150.228 337.128Z" fill="#A3C1C6"/>
<path d="M151.608 343.563C151.608 343.563 156.466 345.717 153.482 347.085C150.498 348.454 151.608 343.563 151.608 343.563Z" fill="#A3C1C6"/>
<path d="M152.185 351.949C152.185 351.949 157.043 354.103 154.059 355.471C151.075 356.84 152.185 351.949 152.185 351.949Z" fill="#A3C1C6"/>
<path d="M154.246 352.185C154.246 352.185 156.383 347.316 157.763 350.295C159.142 353.273 154.246 352.185 154.246 352.185Z" fill="#A3C1C6"/>
<path d="M148.684 329.972C148.684 329.972 152.179 325.972 152.602 329.231C153.026 332.489 148.684 329.972 148.684 329.972Z" fill="#A3C1C6"/>
<path d="M150.805 334.578C150.805 334.578 156.015 335.616 153.405 337.606C150.794 339.595 150.805 334.578 150.805 334.578Z" fill="#A3C1C6"/>
<path d="M168.808 356.961H173.903C174.301 356.96 174.688 356.826 175.002 356.581C176.003 355.816 176.739 354.755 177.104 353.549C177.47 352.343 177.448 351.053 177.04 349.86C176.633 348.668 175.861 347.633 174.833 346.904C173.806 346.174 172.575 345.785 171.315 345.793C170.054 345.8 168.828 346.204 167.81 346.946C166.792 347.689 166.032 348.732 165.639 349.93C165.246 351.127 165.239 352.418 165.62 353.619C166 354.821 166.748 355.872 167.759 356.625C168.063 356.848 168.431 356.966 168.808 356.961V356.961Z" fill="#F0F0F0"/>
<path d="M172.98 337.204H169.737V349.646H172.98V337.204Z" fill="#F0F0F0"/>
<path d="M173.331 337.655H169.386C169.297 337.657 169.21 337.64 169.128 337.608C169.046 337.575 168.971 337.526 168.908 337.464C168.845 337.402 168.795 337.329 168.761 337.247C168.727 337.166 168.71 337.078 168.71 336.99V336.99C168.71 336.814 168.78 336.645 168.904 336.52C169.029 336.395 169.198 336.325 169.375 336.325H173.32C173.497 336.325 173.666 336.395 173.79 336.52C173.915 336.645 173.985 336.814 173.985 336.99C173.985 337.165 173.917 337.332 173.794 337.456C173.672 337.581 173.506 337.652 173.331 337.655V337.655Z" fill="#F0F0F0"/>
<path d="M69.1544 236.242H66.1265V243.727H69.1544V236.242Z" fill="#A3C1C6"/>
<path d="M69.4787 236.666H65.7967C65.6325 236.664 65.4754 236.598 65.3592 236.482C65.2431 236.366 65.1772 236.209 65.1758 236.045V236.045C65.1758 235.88 65.2412 235.722 65.3576 235.606C65.4741 235.489 65.632 235.424 65.7967 235.424H69.4787C69.5604 235.423 69.6415 235.438 69.7172 235.469C69.7928 235.5 69.8616 235.546 69.9194 235.604C69.9772 235.662 70.0229 235.73 70.0539 235.806C70.0848 235.882 70.1004 235.963 70.0997 236.045V236.045C70.0997 236.209 70.0342 236.367 69.9178 236.484C69.8013 236.6 69.6434 236.666 69.4787 236.666Z" fill="#A3C1C6"/>
<path d="M61.5817 250.107L67.6267 241.106L73.6717 250.107C73.7991 250.298 73.8725 250.519 73.8839 250.748C73.8954 250.976 73.8445 251.204 73.7367 251.406C73.6289 251.608 73.4683 251.777 73.272 251.895C73.0757 252.012 72.851 252.075 72.6221 252.075H62.6479C62.4175 252.078 62.1907 252.018 61.992 251.901C61.7933 251.784 61.6303 251.616 61.5205 251.413C61.4108 251.211 61.3585 250.982 61.3692 250.752C61.38 250.522 61.4535 250.299 61.5817 250.107V250.107Z" fill="#A3C1C6"/>
<path d="M105.468 334.583H101.193V345.151H105.468V334.583Z" fill="#A3C1C6"/>
<path d="M105.93 335.177H100.731C100.616 335.177 100.502 335.155 100.395 335.112C100.288 335.068 100.191 335.004 100.11 334.923C100.028 334.841 99.9632 334.745 99.9189 334.639C99.8747 334.532 99.8519 334.418 99.8519 334.303C99.8519 334.07 99.9445 333.846 100.109 333.681C100.274 333.516 100.498 333.424 100.731 333.424H105.93C106.163 333.424 106.387 333.516 106.552 333.681C106.716 333.846 106.809 334.07 106.809 334.303V334.303C106.808 334.535 106.714 334.757 106.55 334.921C106.385 335.085 106.162 335.177 105.93 335.177Z" fill="#A3C1C6"/>
<path d="M94.7741 354.174L103.314 341.463L111.865 354.174C112.046 354.443 112.151 354.756 112.169 355.079C112.186 355.403 112.115 355.725 111.963 356.012C111.811 356.298 111.584 356.537 111.306 356.705C111.029 356.872 110.711 356.96 110.387 356.961H96.2579C95.9341 356.959 95.6166 356.871 95.3393 356.703C95.0619 356.536 94.8351 356.297 94.6829 356.011C94.5307 355.725 94.4588 355.404 94.4748 355.08C94.4909 354.757 94.5943 354.444 94.7741 354.174V354.174Z" fill="#A3C1C6"/>
<path d="M49.7666 328.203H45.9528V346.426H49.7666V328.203Z" fill="#F5F5F5"/>
<path d="M50.1787 328.736H45.5351C45.3276 328.735 45.1292 328.651 44.983 328.504C44.8368 328.357 44.7547 328.158 44.7547 327.95C44.7562 327.744 44.8389 327.546 44.9849 327.4C45.1309 327.254 45.3286 327.171 45.5351 327.17H50.1787C50.3857 327.17 50.5842 327.252 50.7305 327.398C50.8769 327.545 50.9591 327.743 50.9591 327.95V327.95C50.9598 328.053 50.9402 328.155 50.9013 328.25C50.8624 328.346 50.805 328.432 50.7325 328.505C50.6599 328.579 50.5737 328.637 50.4786 328.676C50.3836 328.716 50.2817 328.736 50.1787 328.736Z" fill="#F5F5F5"/>
<path d="M40.2265 354.477L47.8597 343.14L55.5038 354.477C55.6652 354.716 55.7584 354.995 55.7735 355.284C55.7886 355.572 55.725 355.859 55.5895 356.114C55.4541 356.369 55.2518 356.583 55.0044 356.732C54.757 356.881 54.4737 356.96 54.1849 356.961H41.5454C41.2566 356.96 40.9733 356.881 40.7259 356.732C40.4785 356.583 40.2762 356.369 40.1408 356.114C40.0053 355.859 39.9418 355.572 39.9569 355.284C39.972 354.995 40.0652 354.716 40.2265 354.477V354.477Z" fill="#F5F5F5"/>
<path d="M63.8788 336.836C63.8193 336.836 63.7609 336.853 63.7113 336.886C63.6616 336.919 63.6231 336.966 63.6005 337.021C63.578 337.076 63.5726 337.136 63.585 337.195C63.5974 337.253 63.627 337.306 63.67 337.347L64.9394 338.617V355.35C64.9394 355.776 65.1083 356.185 65.4091 356.487C65.7099 356.789 66.118 356.959 66.5441 356.961H75.9633C76.1747 356.961 76.3841 356.919 76.5795 356.838C76.7748 356.757 76.9523 356.638 77.1018 356.489C77.2513 356.339 77.3699 356.162 77.4509 355.967C77.5318 355.771 77.5734 355.562 77.5734 355.35V336.836H63.8788Z" fill="#F0F0F0"/>
<path d="M148.069 232.242C148.01 232.243 147.953 232.261 147.904 232.294C147.855 232.326 147.817 232.373 147.794 232.427C147.771 232.481 147.765 232.541 147.776 232.599C147.786 232.657 147.814 232.71 147.854 232.753L149.124 234.022V250.756C149.124 251.183 149.294 251.592 149.595 251.894C149.897 252.196 150.307 252.366 150.734 252.366H160.153C160.58 252.365 160.988 252.195 161.29 251.893C161.592 251.591 161.762 251.183 161.763 250.756V232.242H148.069Z" fill="#F5F5F5"/>
<path d="M43.9634 229.175C43.8962 229.176 43.8308 229.197 43.7753 229.235C43.7198 229.272 43.6767 229.326 43.6514 229.388C43.6262 229.45 43.6199 229.519 43.6333 229.584C43.6468 229.65 43.6794 229.711 43.7271 229.758L45.1669 231.198V250.25C45.1684 250.736 45.3624 251.202 45.7064 251.545C46.0505 251.888 46.5165 252.08 47.0024 252.08H57.702C57.9423 252.08 58.1803 252.033 58.4023 251.941C58.6243 251.849 58.826 251.714 58.996 251.544C59.1659 251.374 59.3007 251.173 59.3927 250.951C59.4846 250.729 59.532 250.491 59.532 250.25V229.175H43.9634Z" fill="#F5F5F5"/>
<path d="M55.0477 230.401H57.5921C57.6504 230.401 57.7063 230.378 57.7475 230.336C57.7887 230.295 57.8119 230.239 57.8119 230.181C57.8119 230.123 57.7887 230.067 57.7475 230.026C57.7063 229.984 57.6504 229.961 57.5921 229.961H55.0477C54.9894 229.961 54.9335 229.984 54.8922 230.026C54.851 230.067 54.8279 230.123 54.8279 230.181C54.8279 230.239 54.851 230.295 54.8922 230.336C54.9335 230.378 54.9894 230.401 55.0477 230.401V230.401Z" fill="#A3C1C6"/>
<path d="M56.0533 231.747H57.614C57.6723 231.747 57.7283 231.724 57.7695 231.683C57.8107 231.642 57.8339 231.586 57.8339 231.527C57.8339 231.469 57.8107 231.413 57.7695 231.372C57.7283 231.331 57.6723 231.308 57.614 231.308H56.0533C55.995 231.308 55.9391 231.331 55.8979 231.372C55.8567 231.413 55.8335 231.469 55.8335 231.527C55.8335 231.586 55.8567 231.642 55.8979 231.683C55.9391 231.724 55.995 231.747 56.0533 231.747Z" fill="#A3C1C6"/>
<path d="M56.0533 233.072H57.614C57.6671 233.063 57.7154 233.036 57.7502 232.995C57.7851 232.955 57.8043 232.903 57.8043 232.849C57.8043 232.795 57.7851 232.744 57.7502 232.703C57.7154 232.662 57.6671 232.635 57.614 232.627H56.0533C56.0003 232.635 55.952 232.662 55.9171 232.703C55.8823 232.744 55.8631 232.795 55.8631 232.849C55.8631 232.903 55.8823 232.955 55.9171 232.995C55.952 233.036 56.0003 233.063 56.0533 233.072V233.072Z" fill="#A3C1C6"/>
<path d="M56.0533 234.44H57.614C57.6671 234.432 57.7154 234.405 57.7502 234.364C57.7851 234.323 57.8043 234.271 57.8043 234.217C57.8043 234.164 57.7851 234.112 57.7502 234.071C57.7154 234.03 57.6671 234.003 57.614 233.995H56.0533C56.0003 234.003 55.952 234.03 55.9171 234.071C55.8823 234.112 55.8631 234.164 55.8631 234.217C55.8631 234.271 55.8823 234.323 55.9171 234.364C55.952 234.405 56.0003 234.432 56.0533 234.44V234.44Z" fill="#A3C1C6"/>
<path d="M56.0533 235.781H57.614C57.6723 235.781 57.7283 235.758 57.7695 235.717C57.8107 235.675 57.8339 235.619 57.8339 235.561C57.8339 235.503 57.8107 235.447 57.7695 235.406C57.7283 235.364 57.6723 235.341 57.614 235.341H56.0533C55.995 235.341 55.9391 235.364 55.8979 235.406C55.8567 235.447 55.8335 235.503 55.8335 235.561C55.8335 235.619 55.8567 235.675 55.8979 235.717C55.9391 235.758 55.995 235.781 56.0533 235.781V235.781Z" fill="#A3C1C6"/>
<path d="M55.0477 237.127H57.5921C57.6504 237.127 57.7063 237.104 57.7475 237.063C57.7887 237.022 57.8119 236.966 57.8119 236.907C57.8119 236.849 57.7887 236.793 57.7475 236.752C57.7063 236.711 57.6504 236.688 57.5921 236.688H55.0477C54.9894 236.688 54.9335 236.711 54.8922 236.752C54.851 236.793 54.8279 236.849 54.8279 236.907C54.8279 236.966 54.851 237.022 54.8922 237.063C54.9335 237.104 54.9894 237.127 55.0477 237.127V237.127Z" fill="#A3C1C6"/>
<path d="M56.0533 238.474H57.614C57.6671 238.465 57.7154 238.438 57.7502 238.397C57.7851 238.357 57.8043 238.305 57.8043 238.251C57.8043 238.197 57.7851 238.145 57.7502 238.105C57.7154 238.064 57.6671 238.037 57.614 238.029H56.0533C56.0003 238.037 55.952 238.064 55.9171 238.105C55.8823 238.145 55.8631 238.197 55.8631 238.251C55.8631 238.305 55.8823 238.357 55.9171 238.397C55.952 238.438 56.0003 238.465 56.0533 238.474Z" fill="#A3C1C6"/>
<path d="M56.0533 239.82H57.614C57.6671 239.812 57.7154 239.785 57.7502 239.744C57.7851 239.703 57.8043 239.651 57.8043 239.597C57.8043 239.544 57.7851 239.492 57.7502 239.451C57.7154 239.41 57.6671 239.383 57.614 239.375H56.0533C56.0003 239.383 55.952 239.41 55.9171 239.451C55.8823 239.492 55.8631 239.544 55.8631 239.597C55.8631 239.651 55.8823 239.703 55.9171 239.744C55.952 239.785 56.0003 239.812 56.0533 239.82V239.82Z" fill="#A3C1C6"/>
<path d="M56.0533 241.161H57.614C57.6723 241.161 57.7283 241.138 57.7695 241.097C57.8107 241.055 57.8339 240.999 57.8339 240.941C57.8339 240.883 57.8107 240.827 57.7695 240.786C57.7283 240.744 57.6723 240.721 57.614 240.721H56.0533C55.995 240.721 55.9391 240.744 55.8979 240.786C55.8567 240.827 55.8335 240.883 55.8335 240.941C55.8335 240.999 55.8567 241.055 55.8979 241.097C55.9391 241.138 55.995 241.161 56.0533 241.161Z" fill="#A3C1C6"/>
<path d="M56.0533 242.507H57.614C57.6723 242.507 57.7283 242.484 57.7695 242.443C57.8107 242.402 57.8339 242.346 57.8339 242.287C57.8339 242.229 57.8107 242.173 57.7695 242.132C57.7283 242.091 57.6723 242.068 57.614 242.068H56.0533C55.995 242.068 55.9391 242.091 55.8979 242.132C55.8567 242.173 55.8335 242.229 55.8335 242.287C55.8335 242.346 55.8567 242.402 55.8979 242.443C55.9391 242.484 55.995 242.507 56.0533 242.507Z" fill="#A3C1C6"/>
<path d="M55.0477 243.854H57.5921C57.6451 243.845 57.6934 243.818 57.7283 243.777C57.7631 243.737 57.7823 243.685 57.7823 243.631C57.7823 243.577 57.7631 243.526 57.7283 243.485C57.6934 243.444 57.6451 243.417 57.5921 243.409H55.0477C54.9947 243.417 54.9464 243.444 54.9115 243.485C54.8766 243.526 54.8575 243.577 54.8575 243.631C54.8575 243.685 54.8766 243.737 54.9115 243.777C54.9464 243.818 54.9947 243.845 55.0477 243.854V243.854Z" fill="#A3C1C6"/>
<path d="M56.0533 245.2H57.614C57.6671 245.192 57.7154 245.165 57.7502 245.124C57.7851 245.083 57.8043 245.031 57.8043 244.977C57.8043 244.924 57.7851 244.872 57.7502 244.831C57.7154 244.79 57.6671 244.763 57.614 244.755H56.0533C56.0003 244.763 55.952 244.79 55.9171 244.831C55.8823 244.872 55.8631 244.924 55.8631 244.977C55.8631 245.031 55.8823 245.083 55.9171 245.124C55.952 245.165 56.0003 245.192 56.0533 245.2V245.2Z" fill="#A3C1C6"/>
<path d="M56.0533 246.546H57.614C57.6671 246.538 57.7154 246.511 57.7502 246.47C57.7851 246.429 57.8043 246.378 57.8043 246.324C57.8043 246.27 57.7851 246.218 57.7502 246.177C57.7154 246.137 57.6671 246.11 57.614 246.101H56.0533C56.0003 246.11 55.952 246.137 55.9171 246.177C55.8823 246.218 55.8631 246.27 55.8631 246.324C55.8631 246.378 55.8823 246.429 55.9171 246.47C55.952 246.511 56.0003 246.538 56.0533 246.546V246.546Z" fill="#A3C1C6"/>
<path d="M56.0533 247.909H57.614C57.6723 247.909 57.7283 247.886 57.7695 247.845C57.8107 247.804 57.8339 247.748 57.8339 247.689C57.8339 247.631 57.8107 247.575 57.7695 247.534C57.7283 247.493 57.6723 247.47 57.614 247.47H56.0533C55.995 247.47 55.9391 247.493 55.8979 247.534C55.8567 247.575 55.8335 247.631 55.8335 247.689C55.8335 247.748 55.8567 247.804 55.8979 247.845C55.9391 247.886 55.995 247.909 56.0533 247.909Z" fill="#A3C1C6"/>
<path d="M56.0533 249.234H57.614C57.6671 249.225 57.7154 249.198 57.7502 249.158C57.7851 249.117 57.8043 249.065 57.8043 249.011C57.8043 248.957 57.7851 248.906 57.7502 248.865C57.7154 248.824 57.6671 248.797 57.614 248.789H56.0533C56.0003 248.797 55.952 248.824 55.9171 248.865C55.8823 248.906 55.8631 248.957 55.8631 249.011C55.8631 249.065 55.8823 249.117 55.9171 249.158C55.952 249.198 56.0003 249.225 56.0533 249.234V249.234Z" fill="#A3C1C6"/>
<path d="M55.0477 250.58H57.5921C57.6451 250.572 57.6934 250.545 57.7283 250.504C57.7631 250.463 57.7823 250.411 57.7823 250.358C57.7823 250.304 57.7631 250.252 57.7283 250.211C57.6934 250.17 57.6451 250.143 57.5921 250.135H55.0477C54.9947 250.143 54.9464 250.17 54.9115 250.211C54.8766 250.252 54.8575 250.304 54.8575 250.358C54.8575 250.411 54.8766 250.463 54.9115 250.504C54.9464 250.545 54.9947 250.572 55.0477 250.58V250.58Z" fill="#A3C1C6"/>
<path d="M212.882 295.846H225.554C226.178 295.846 226.776 295.598 227.217 295.157C227.659 294.716 227.906 294.118 227.906 293.494V285.8H226.807V293.494C226.806 293.826 226.673 294.144 226.439 294.378C226.204 294.613 225.886 294.745 225.554 294.747H212.882V295.846Z" fill="#A3C1C6"/>
<path d="M212.882 292.768C216.733 292.768 219.856 289.646 219.856 285.795C219.856 281.943 216.733 278.821 212.882 278.821C209.03 278.821 205.908 281.943 205.908 285.795C205.908 289.646 209.03 292.768 212.882 292.768Z" fill="#F0F0F0"/>
<path d="M206.875 302.391H211.024L211.524 291.4H214.272L214.778 302.391H218.91C219.442 302.391 219.952 302.602 220.329 302.978C220.705 303.355 220.916 303.865 220.916 304.397V304.573H204.869V304.397C204.869 303.865 205.081 303.355 205.457 302.978C205.833 302.602 206.343 302.391 206.875 302.391V302.391Z" fill="#A3C1C6"/>
<path d="M225.071 285.795C225.071 286.248 225.205 286.691 225.457 287.068C225.709 287.445 226.068 287.739 226.487 287.912C226.906 288.086 227.367 288.131 227.811 288.042C228.256 287.953 228.664 287.734 228.985 287.413C229.305 287.092 229.523 286.683 229.61 286.238C229.698 285.794 229.652 285.333 229.478 284.914C229.304 284.495 229.009 284.138 228.631 283.887C228.254 283.636 227.81 283.502 227.357 283.503C227.056 283.503 226.758 283.562 226.481 283.678C226.203 283.793 225.951 283.962 225.738 284.175C225.526 284.388 225.358 284.64 225.243 284.918C225.129 285.196 225.07 285.494 225.071 285.795V285.795Z" fill="#F0F0F0"/>
<path d="M206.194 247.074C205.778 247.074 205.379 246.909 205.084 246.616C204.79 246.322 204.624 245.924 204.622 245.508V232.78H207.76V245.508C207.759 245.923 207.593 246.32 207.3 246.614C207.006 246.907 206.609 247.073 206.194 247.074V247.074Z" fill="#F5F5F5"/>
<path d="M208.101 233.22H204.281C204.197 233.22 204.113 233.203 204.035 233.171C203.957 233.139 203.887 233.091 203.827 233.032C203.767 232.972 203.72 232.901 203.687 232.823C203.655 232.745 203.639 232.661 203.639 232.577V232.577C203.639 232.493 203.655 232.409 203.687 232.331C203.72 232.253 203.767 232.182 203.827 232.122C203.887 232.063 203.957 232.015 204.035 231.983C204.113 231.951 204.197 231.934 204.281 231.934H208.101C208.186 231.933 208.27 231.949 208.349 231.981C208.427 232.013 208.499 232.061 208.559 232.12C208.619 232.18 208.667 232.251 208.7 232.33C208.732 232.408 208.749 232.492 208.749 232.577V232.577C208.749 232.662 208.732 232.746 208.7 232.824C208.667 232.903 208.619 232.974 208.559 233.034C208.499 233.093 208.427 233.141 208.349 233.173C208.27 233.205 208.186 233.221 208.101 233.22V233.22Z" fill="#F5F5F5"/>
<path d="M213.003 247.074C212.587 247.074 212.189 246.909 211.895 246.615C211.602 246.322 211.437 245.923 211.437 245.508V232.78H214.574V245.508C214.573 245.924 214.407 246.322 214.112 246.616C213.818 246.909 213.419 247.074 213.003 247.074Z" fill="#F5F5F5"/>
<path d="M214.915 233.22H211.068C210.907 233.208 210.755 233.134 210.645 233.015C210.535 232.896 210.474 232.739 210.475 232.577V232.577C210.475 232.493 210.491 232.409 210.524 232.331C210.556 232.253 210.603 232.182 210.663 232.122C210.723 232.063 210.794 232.015 210.872 231.983C210.95 231.951 211.033 231.934 211.118 231.934H214.965C215.049 231.934 215.133 231.951 215.211 231.983C215.289 232.015 215.36 232.063 215.419 232.122C215.479 232.182 215.526 232.253 215.559 232.331C215.591 232.409 215.608 232.493 215.608 232.577V232.577C215.608 232.666 215.59 232.754 215.554 232.835C215.519 232.917 215.467 232.99 215.402 233.05C215.337 233.111 215.26 233.157 215.176 233.186C215.093 233.215 215.004 233.227 214.915 233.22V233.22Z" fill="#F5F5F5"/>
<path d="M219.817 247.074C219.402 247.073 219.005 246.907 218.711 246.614C218.418 246.32 218.252 245.923 218.251 245.508V232.78H221.389V245.508C221.387 245.924 221.221 246.322 220.926 246.616C220.632 246.909 220.233 247.074 219.817 247.074V247.074Z" fill="#F5F5F5"/>
<path d="M221.724 233.22H217.877C217.707 233.22 217.543 233.152 217.423 233.032C217.302 232.911 217.234 232.748 217.234 232.577V232.577C217.234 232.493 217.251 232.409 217.283 232.331C217.315 232.253 217.363 232.182 217.423 232.122C217.482 232.063 217.553 232.015 217.631 231.983C217.709 231.951 217.793 231.934 217.877 231.934H221.724C221.808 231.934 221.892 231.951 221.97 231.983C222.048 232.015 222.119 232.063 222.179 232.122C222.238 232.182 222.286 232.253 222.318 232.331C222.35 232.409 222.367 232.493 222.367 232.577V232.577C222.367 232.748 222.299 232.911 222.179 233.032C222.058 233.152 221.894 233.22 221.724 233.22V233.22Z" fill="#F5F5F5"/>
<path d="M226.626 247.074C226.21 247.074 225.811 246.909 225.516 246.616C225.222 246.322 225.056 245.924 225.054 245.508V232.78H228.192V245.508C228.191 245.923 228.025 246.32 227.732 246.614C227.438 246.907 227.041 247.073 226.626 247.074V247.074Z" fill="#F5F5F5"/>
<path d="M228.533 233.22H224.713C224.543 233.22 224.379 233.152 224.259 233.032C224.138 232.911 224.07 232.748 224.07 232.577V232.577C224.07 232.493 224.087 232.409 224.119 232.331C224.152 232.253 224.199 232.182 224.259 232.122C224.319 232.063 224.389 232.015 224.467 231.983C224.545 231.951 224.629 231.934 224.713 231.934H228.533C228.7 231.938 228.86 232.008 228.977 232.128C229.094 232.248 229.159 232.409 229.159 232.577V232.577C229.159 232.745 229.094 232.906 228.977 233.026C228.86 233.146 228.7 233.216 228.533 233.22V233.22Z" fill="#F5F5F5"/>
<path d="M201.133 234.171V252.102H202.594V250.311H230.258V252.102H231.715V234.171H201.133ZM230.258 248.854H202.572V235.611H230.258V248.833V248.854Z" fill="#A3C1C6"/>
<path d="M161.247 252.08L173.002 236.479L184.756 252.08H161.247Z" fill="#A3C1C6"/>
<path d="M184.756 252.08L173.002 236.479V252.08H184.756Z" fill="#A3C1C6"/>
<path d="M200.611 356.961L215.151 337.655L229.698 356.961H200.611Z" fill="#F5F5F5"/>
<path d="M229.698 356.961L215.151 337.655V356.961H229.698Z" fill="#A3C1C6"/>
</svg>
