<svg width="466" height="379" viewBox="0 0 466 379" fill="none" xmlns="http://www.w3.org/2000/svg">
<path d="M215.389 82.6765H68.8586V250.646H215.389V82.6765Z" fill="#BDBDBD"/>
<path d="M208.775 91.5562H75.4635V250.637H208.775V91.5562Z" fill="#DBDBDB"/>
<path d="M208.775 118.865H75.4635V127.754H208.775V118.865Z" fill="#BDBDBD"/>
<path d="M184.382 1.90794H174.785V4.90928H184.382V1.90794Z" fill="#BDBDBD"/>
<path d="M184.382 6.10409H174.785V9.10543H184.382V6.10409Z" fill="#BDBDBD"/>
<path d="M184.382 10.3002H174.785V13.3016H184.382V10.3002Z" fill="#BDBDBD"/>
<path d="M184.382 14.4964H174.785V17.4977H184.382V14.4964Z" fill="#BDBDBD"/>
<path d="M184.382 18.6925H174.785V21.6939H184.382V18.6925Z" fill="#BDBDBD"/>
<path d="M184.382 22.8982H174.785V25.8995H184.382V22.8982Z" fill="#BDBDBD"/>
<path d="M184.382 27.0943H174.785V30.0957H184.382V27.0943Z" fill="#BDBDBD"/>
<path d="M184.382 31.2905H174.785V34.2918H184.382V31.2905Z" fill="#BDBDBD"/>
<path d="M184.382 35.4866H174.785V38.488H184.382V35.4866Z" fill="#BDBDBD"/>
<path d="M184.382 39.6828H174.785V42.6841H184.382V39.6828Z" fill="#BDBDBD"/>
<path d="M184.382 43.8885H174.785V46.8898H184.382V43.8885Z" fill="#BDBDBD"/>
<path d="M184.382 48.0846H174.785V51.086H184.382V48.0846Z" fill="#BDBDBD"/>
<path d="M184.382 52.2807H174.785V55.2821H184.382V52.2807Z" fill="#BDBDBD"/>
<path d="M184.382 56.4769H174.785V59.4782H184.382V56.4769Z" fill="#BDBDBD"/>
<path d="M184.382 60.673H174.785V63.6744H184.382V60.673Z" fill="#BDBDBD"/>
<path d="M184.382 64.8692H174.785V67.8705H184.382V64.8692Z" fill="#BDBDBD"/>
<path d="M184.382 69.0749H174.785V72.0762H184.382V69.0749Z" fill="#BDBDBD"/>
<path d="M184.382 73.271H174.785V76.2724H184.382V73.271Z" fill="#BDBDBD"/>
<path d="M184.382 77.4672H174.785V80.4685H184.382V77.4672Z" fill="#BDBDBD"/>
<path d="M184.382 81.6633H174.785V84.6646H184.382V81.6633Z" fill="#BDBDBD"/>
<path d="M309.807 82.6765H234.936V250.646H309.807V82.6765Z" fill="#BDBDBD"/>
<path d="M303.967 91.5562H240.776V250.637H303.967V91.5562Z" fill="#DBDBDB"/>
<path d="M303.967 118.865H240.776V127.754H303.967V118.865Z" fill="#BDBDBD"/>
<path d="M278.799 1.90794H269.203V4.90928H278.799V1.90794Z" fill="#BDBDBD"/>
<path d="M278.799 6.10409H269.203V9.10543H278.799V6.10409Z" fill="#BDBDBD"/>
<path d="M278.799 10.3002H269.203V13.3016H278.799V10.3002Z" fill="#BDBDBD"/>
<path d="M278.799 14.4964H269.203V17.4977H278.799V14.4964Z" fill="#BDBDBD"/>
<path d="M278.799 18.6925H269.203V21.6939H278.799V18.6925Z" fill="#BDBDBD"/>
<path d="M278.799 22.8982H269.203V25.8995H278.799V22.8982Z" fill="#BDBDBD"/>
<path d="M278.799 27.0943H269.203V30.0957H278.799V27.0943Z" fill="#BDBDBD"/>
<path d="M278.799 31.2905H269.203V34.2918H278.799V31.2905Z" fill="#BDBDBD"/>
<path d="M278.799 35.4866H269.203V38.488H278.799V35.4866Z" fill="#BDBDBD"/>
<path d="M278.799 39.6828H269.203V42.6841H278.799V39.6828Z" fill="#BDBDBD"/>
<path d="M278.799 43.8885H269.203V46.8898H278.799V43.8885Z" fill="#BDBDBD"/>
<path d="M278.799 48.0846H269.203V51.086H278.799V48.0846Z" fill="#BDBDBD"/>
<path d="M278.799 52.2807H269.203V55.2821H278.799V52.2807Z" fill="#BDBDBD"/>
<path d="M278.799 56.4769H269.203V59.4782H278.799V56.4769Z" fill="#BDBDBD"/>
<path d="M278.799 60.673H269.203V63.6744H278.799V60.673Z" fill="#BDBDBD"/>
<path d="M278.799 64.8692H269.203V67.8705H278.799V64.8692Z" fill="#BDBDBD"/>
<path d="M278.799 69.0749H269.203V72.0762H278.799V69.0749Z" fill="#BDBDBD"/>
<path d="M278.799 73.271H269.203V76.2724H278.799V73.271Z" fill="#BDBDBD"/>
<path d="M278.799 77.4672H269.203V80.4685H278.799V77.4672Z" fill="#BDBDBD"/>
<path d="M278.799 81.6633H269.203V84.6646H278.799V81.6633Z" fill="#BDBDBD"/>
<path d="M247.859 227.486H36.9909V264.42H247.859V227.486Z" fill="#BDBDBD"/>
<path d="M53.0874 235.525C53.0874 236.41 52.8248 237.275 52.3328 238.011C51.8408 238.747 51.1416 239.32 50.3237 239.659C49.5057 239.997 48.6058 240.085 47.7378 239.912C46.8698 239.738 46.0727 239.311 45.4475 238.685C44.8223 238.058 44.397 237.26 44.2255 236.392C44.054 235.523 44.1439 234.624 44.4839 233.806C44.824 232.989 45.3988 232.291 46.1357 231.801C46.8726 231.31 47.7384 231.05 48.6236 231.052C49.2106 231.052 49.7918 231.167 50.334 231.392C50.8762 231.617 51.3687 231.947 51.7833 232.362C52.198 232.778 52.5266 233.271 52.7503 233.814C52.9741 234.357 53.0886 234.938 53.0874 235.525V235.525Z" fill="#49BDCD"/>
<path d="M73.1982 231.052H61.47V239.989H73.1982V231.052Z" fill="#49BDCD"/>
<path d="M87.7269 231.052H75.9988V239.989H87.7269V231.052Z" fill="#808080"/>
<path d="M247.859 142.608H36.9909V227.592H247.859V142.608Z" fill="#DBDBDB"/>
<path d="M247.859 264.477H36.9909V378.328H247.859V264.477Z" fill="#DBDBDB"/>
<path d="M195.737 145.819H89.1034V224.389H195.737V145.819Z" fill="#BDBDBD"/>
<path d="M92.8694 211.524C92.4568 212.926 92.3768 214.406 92.6359 215.845C92.8949 217.284 93.4858 218.642 94.3616 219.813C95.2375 220.983 96.3741 221.934 97.6814 222.588C98.9887 223.243 100.431 223.584 101.893 223.584C103.355 223.584 104.796 223.243 106.104 222.588C107.411 221.934 108.548 220.983 109.423 219.813C110.299 218.642 110.89 217.284 111.149 215.845C111.408 214.406 111.328 212.926 110.916 211.524H92.8694Z" fill="#49BDCD"/>
<path d="M105.544 204.317V191.891H98.2412V204.317C95.9278 205.173 93.9894 206.816 92.7649 208.958C91.5405 211.099 91.108 213.603 91.5431 216.031C91.9783 218.46 93.2534 220.657 95.1453 222.241C97.0373 223.824 99.4256 224.691 101.893 224.691C104.359 224.691 106.748 223.824 108.64 222.241C110.532 220.657 111.807 218.46 112.242 216.031C112.677 213.603 112.245 211.099 111.02 208.958C109.796 206.816 107.857 205.173 105.544 204.317Z" stroke="white" stroke-miterlimit="10"/>
<path d="M135.443 211.524C135.03 212.926 134.95 214.406 135.209 215.845C135.468 217.284 136.059 218.642 136.935 219.813C137.811 220.983 138.947 221.934 140.255 222.588C141.562 223.243 143.004 223.584 144.466 223.584C145.928 223.584 147.37 223.243 148.677 222.588C149.984 221.934 151.121 220.983 151.997 219.813C152.872 218.642 153.463 217.284 153.722 215.845C153.981 214.406 153.901 212.926 153.489 211.524H135.443Z" fill="#49BDCD"/>
<path d="M148.146 204.317V191.891H140.843V204.317C138.53 205.173 136.591 206.816 135.367 208.958C134.142 211.099 133.71 213.603 134.145 216.031C134.58 218.46 135.855 220.657 137.747 222.241C139.639 223.824 142.027 224.691 144.494 224.691C146.961 224.691 149.35 223.824 151.241 222.241C153.133 220.657 154.409 218.46 154.844 216.031C155.279 213.603 154.846 211.099 153.622 208.958C152.397 206.816 150.459 205.173 148.146 204.317Z" stroke="white" stroke-miterlimit="10"/>
<path d="M115.609 214.946C115.412 215.584 115.313 216.247 115.313 216.915C115.278 217.852 115.432 218.787 115.767 219.663C116.102 220.539 116.61 221.339 117.261 222.015C117.912 222.69 118.692 223.228 119.556 223.594C120.419 223.961 121.347 224.151 122.285 224.151C123.223 224.151 124.152 223.961 125.015 223.594C125.878 223.228 126.659 222.69 127.31 222.015C127.961 221.339 128.469 220.539 128.803 219.663C129.138 218.787 129.293 217.852 129.258 216.915C129.256 216.248 129.16 215.585 128.971 214.946H115.609Z" fill="#49BDCD"/>
<path d="M124.995 209.612V200.379H119.585V209.612C117.868 210.247 116.43 211.465 115.521 213.054C114.611 214.642 114.29 216.5 114.612 218.302C114.935 220.103 115.881 221.734 117.284 222.909C118.688 224.084 120.46 224.727 122.29 224.727C124.12 224.727 125.892 224.084 127.296 222.909C128.7 221.734 129.645 220.103 129.968 218.302C130.29 216.5 129.969 214.642 129.06 213.054C128.151 211.465 126.712 210.247 124.995 209.612V209.612Z" stroke="white" stroke-miterlimit="10"/>
<path d="M106.328 157.223H101.577V163.311H106.328V157.223Z" fill="#858585"/>
<path d="M100.459 163.33H107.436C107.913 163.33 108.386 163.424 108.826 163.607C109.267 163.789 109.667 164.057 110.005 164.394C110.342 164.731 110.61 165.132 110.792 165.573C110.975 166.013 111.069 166.486 111.069 166.963V181.195H96.8265V166.963C96.8265 166.486 96.9205 166.013 97.103 165.573C97.2855 165.132 97.5531 164.731 97.8904 164.394C98.2276 164.057 98.628 163.789 99.0687 163.607C99.5094 163.424 99.9817 163.33 100.459 163.33V163.33Z" fill="#DBDBDB"/>
<path d="M136.351 157.223H131.6V163.311H136.351V157.223Z" fill="#858585"/>
<path d="M130.491 163.33H137.469C137.946 163.33 138.418 163.424 138.859 163.607C139.3 163.789 139.7 164.057 140.037 164.394C140.375 164.731 140.642 165.132 140.825 165.573C141.007 166.013 141.101 166.486 141.101 166.963V181.195H126.84V166.963C126.84 166.484 126.935 166.01 127.118 165.568C127.302 165.126 127.571 164.725 127.911 164.387C128.25 164.05 128.653 163.783 129.095 163.601C129.538 163.42 130.013 163.328 130.491 163.33Z" fill="#DBDBDB"/>
<path d="M162.369 157.223H157.618V163.311H162.369V157.223Z" fill="#858585"/>
<path d="M156.471 163.33H163.449C163.926 163.33 164.398 163.424 164.839 163.607C165.279 163.789 165.68 164.057 166.017 164.394C166.354 164.731 166.622 165.132 166.804 165.573C166.987 166.013 167.081 166.486 167.081 166.963V181.195H152.867V166.963C152.867 166.004 153.246 165.085 153.921 164.404C154.596 163.724 155.513 163.338 156.471 163.33V163.33Z" fill="#DBDBDB"/>
<path d="M181.17 157.223H176.419V163.311H181.17V157.223Z" fill="#858585"/>
<path d="M175.301 163.33H182.279C182.756 163.33 183.228 163.424 183.669 163.607C184.109 163.789 184.51 164.057 184.847 164.394C185.184 164.731 185.452 165.132 185.634 165.573C185.817 166.013 185.911 166.486 185.911 166.963V181.195H171.669V166.963C171.669 165.999 172.052 165.075 172.733 164.394C173.414 163.713 174.338 163.33 175.301 163.33V163.33Z" fill="#DBDBDB"/>
<path d="M195.737 181.09H89.1034V189.109H195.737V181.09Z" fill="#DBDBDB"/>
<path d="M51.3477 269.744L53.4888 273.682H65.6089L67.75 269.744H51.3477Z" fill="#808080"/>
<path d="M107.169 269.744L109.31 273.682H121.43L123.571 269.744H107.169Z" fill="#808080"/>
<path d="M162.99 269.744L165.121 273.682H177.251L179.392 269.744H162.99Z" fill="#808080"/>
<path d="M218.811 269.744L220.942 273.682H233.072L235.213 269.744H218.811Z" fill="#808080"/>
<path d="M51.3477 295.59L53.4888 299.528H65.6089L67.75 295.59H51.3477Z" fill="#808080"/>
<path d="M107.169 295.59L109.31 299.528H121.43L123.571 295.59H107.169Z" fill="#808080"/>
<path d="M162.99 295.59L165.121 299.528H177.251L179.392 295.59H162.99Z" fill="#808080"/>
<path d="M218.811 295.59L220.942 299.528H233.072L235.213 295.59H218.811Z" fill="#808080"/>
<path d="M39.3614 269.744H244.456" stroke="#808080" stroke-miterlimit="10"/>
<path d="M39.3614 295.475H244.456" stroke="#808080" stroke-miterlimit="10"/>
<path d="M401.606 216.982L397.391 200.637V196.135H391.436V200.599L387.23 216.943C387.163 217.199 387.155 217.466 387.207 217.725C387.26 217.984 387.371 218.228 387.533 218.437C387.695 218.645 387.903 218.814 388.14 218.93C388.378 219.046 388.639 219.105 388.903 219.104H399.924C400.184 219.103 400.441 219.044 400.675 218.931C400.909 218.817 401.115 218.652 401.277 218.448C401.438 218.244 401.552 218.007 401.609 217.753C401.666 217.499 401.665 217.235 401.606 216.982Z" fill="#BDBDBD"/>
<path d="M398.155 208.723H390.652L388.444 217.326C388.425 217.393 388.422 217.464 388.437 217.533C388.452 217.601 388.484 217.665 388.53 217.718C388.57 217.774 388.623 217.82 388.685 217.852C388.746 217.883 388.814 217.9 388.884 217.899H399.924C399.994 217.898 400.063 217.881 400.126 217.85C400.189 217.818 400.244 217.773 400.287 217.718C400.329 217.663 400.358 217.599 400.371 217.531C400.384 217.463 400.382 217.393 400.363 217.326L398.155 208.723Z" fill="#808080"/>
<path d="M427.031 216.982L422.826 200.637V196.135H416.871V200.599L412.665 216.943C412.597 217.199 412.59 217.466 412.642 217.725C412.695 217.984 412.806 218.228 412.968 218.437C413.13 218.645 413.337 218.814 413.575 218.93C413.812 219.046 414.073 219.105 414.338 219.104H425.358C425.619 219.104 425.875 219.045 426.109 218.931C426.343 218.818 426.548 218.652 426.709 218.448C426.87 218.244 426.983 218.006 427.039 217.752C427.094 217.498 427.092 217.235 427.031 216.982V216.982Z" fill="#BDBDBD"/>
<path d="M423.59 208.723H416.106L413.898 217.326C413.879 217.393 413.876 217.464 413.891 217.533C413.906 217.601 413.938 217.665 413.984 217.718C414.024 217.774 414.077 217.82 414.139 217.852C414.2 217.883 414.269 217.9 414.338 217.899H425.359C425.429 217.898 425.498 217.881 425.561 217.85C425.624 217.818 425.679 217.773 425.722 217.718C425.764 217.663 425.793 217.599 425.806 217.531C425.819 217.463 425.817 217.393 425.798 217.326L423.59 208.723Z" fill="#808080"/>
<path d="M393.997 199.958V151.21" stroke="#BDBDBD" stroke-miterlimit="10"/>
<path d="M453.279 219.075H291.923V314.105H453.279V219.075Z" fill="#DBDBDB"/>
<path d="M448.824 222.851H296.387V314.105H448.824V222.851Z" fill="#BDBDBD"/>
<path d="M377.805 259.631L383.302 267.173H425.836L431.677 259.631H377.805Z" fill="#808080"/>
<path d="M421.755 263.932H388.74V267.173H421.755V263.932Z" fill="#5C5C5C"/>
<path d="M372.892 247.091H345.794V255.301H372.892V247.091Z" fill="#808080"/>
<path d="M388.922 235.984H384.917V245.791H388.922V235.984Z" fill="#263238" stroke="#263238" stroke-miterlimit="10"/>
<path d="M384.544 241.136H389.323C390.287 241.136 391.211 241.518 391.892 242.2C392.573 242.881 392.956 243.805 392.956 244.768V256.238H380.912V244.768C380.912 243.805 381.295 242.881 381.976 242.2C382.657 241.518 383.581 241.136 384.544 241.136Z" fill="#DBDBDB"/>
<path d="M405.439 235.984H401.434V245.791H405.439V235.984Z" fill="#263238" stroke="#263238" stroke-miterlimit="10"/>
<path d="M401.052 241.136H405.831C406.794 241.136 407.718 241.518 408.399 242.2C409.08 242.881 409.463 243.805 409.463 244.768V256.238H397.419V244.768C397.419 243.805 397.802 242.881 398.483 242.2C399.164 241.518 400.088 241.136 401.052 241.136Z" fill="#DBDBDB"/>
<path d="M421.946 235.984H417.941V245.791H421.946V235.984Z" fill="#263238" stroke="#263238" stroke-miterlimit="10"/>
<path d="M417.569 241.136H422.348C423.311 241.136 424.235 241.518 424.916 242.2C425.597 242.881 425.98 243.805 425.98 244.768V256.238H413.927V244.768C413.927 244.29 414.021 243.817 414.204 243.376C414.387 242.935 414.656 242.534 414.994 242.196C415.332 241.859 415.734 241.592 416.176 241.41C416.617 241.228 417.091 241.135 417.569 241.136V241.136Z" fill="#DBDBDB"/>
<path d="M372.892 240.027H345.794V247.091H372.892V240.027Z" fill="#A3A3A3"/>
<path d="M448.824 254.747H296.387V260.922H448.824V254.747Z" fill="#DBDBDB"/>
<path d="M352.342 283.221H341.789V315.386H352.342V283.221Z" fill="#263238" stroke="#263238" stroke-linecap="round" stroke-linejoin="round"/>
<path d="M371.631 267.527H322.491V308.178H371.631V267.527Z" fill="#545454"/>
<path d="M368.209 270.356H325.913V305.349H368.209V270.356Z" fill="white"/>
<path d="M334.984 278.719L348.06 288.144L339.247 293.009" stroke="#828282" stroke-miterlimit="10"/>
<path d="M354.445 279.331L348.06 288.144L351.099 299.7" stroke="#828282" stroke-miterlimit="10"/>
<path d="M348.06 288.144L361.747 296.058" stroke="#828282" stroke-miterlimit="10"/>
<path d="M336.169 277.955C336.169 278.586 335.982 279.203 335.631 279.728C335.28 280.253 334.782 280.663 334.198 280.904C333.615 281.146 332.973 281.209 332.354 281.086C331.734 280.963 331.166 280.659 330.719 280.212C330.273 279.766 329.969 279.197 329.845 278.578C329.722 277.958 329.785 277.316 330.027 276.733C330.269 276.15 330.678 275.651 331.203 275.3C331.728 274.949 332.345 274.762 332.977 274.762C333.823 274.762 334.635 275.099 335.234 275.697C335.833 276.296 336.169 277.108 336.169 277.955V277.955Z" fill="#49BDCD"/>
<path d="M342.439 293.009C342.439 293.641 342.252 294.258 341.901 294.783C341.551 295.308 341.052 295.717 340.469 295.959C339.885 296.2 339.243 296.264 338.624 296.14C338.005 296.017 337.436 295.713 336.989 295.267C336.543 294.82 336.239 294.251 336.116 293.632C335.993 293.013 336.056 292.371 336.297 291.787C336.539 291.204 336.948 290.706 337.473 290.355C337.998 290.004 338.615 289.817 339.247 289.817C340.094 289.817 340.906 290.153 341.504 290.752C342.103 291.35 342.439 292.163 342.439 293.009V293.009Z" fill="#49BDCD"/>
<path d="M357.637 279.293C357.637 279.924 357.45 280.542 357.099 281.067C356.748 281.592 356.25 282.001 355.666 282.242C355.083 282.484 354.441 282.547 353.822 282.424C353.203 282.301 352.634 281.997 352.187 281.55C351.741 281.104 351.437 280.535 351.313 279.916C351.19 279.297 351.254 278.655 351.495 278.071C351.737 277.488 352.146 276.989 352.671 276.639C353.196 276.288 353.813 276.1 354.445 276.1C355.291 276.1 356.103 276.437 356.702 277.036C357.301 277.634 357.637 278.446 357.637 279.293Z" fill="#49BDCD"/>
<path d="M364.94 296.058C364.938 296.689 364.749 297.306 364.397 297.829C364.045 298.353 363.546 298.761 362.962 299.001C362.379 299.241 361.737 299.303 361.119 299.179C360.5 299.054 359.932 298.75 359.487 298.303C359.041 297.856 358.738 297.287 358.615 296.668C358.493 296.049 358.557 295.408 358.799 294.825C359.041 294.242 359.45 293.744 359.975 293.394C360.499 293.043 361.116 292.856 361.747 292.856C362.167 292.856 362.583 292.939 362.971 293.1C363.359 293.261 363.712 293.497 364.008 293.795C364.305 294.092 364.54 294.445 364.7 294.834C364.859 295.222 364.941 295.638 364.94 296.058V296.058Z" fill="#49BDCD"/>
<path d="M351.099 302.893C352.863 302.893 354.292 301.463 354.292 299.7C354.292 297.937 352.863 296.508 351.099 296.508C349.336 296.508 347.907 297.937 347.907 299.7C347.907 301.463 349.336 302.893 351.099 302.893Z" fill="#49BDCD"/>
<path d="M418.716 294.548H405.85V297.377H418.716V294.548Z" fill="#263238" stroke="#263238" stroke-linecap="round" stroke-linejoin="round"/>
<path d="M388.492 315.127V308.79C388.492 307.872 388.689 306.966 389.068 306.13C389.447 305.294 390 304.549 390.69 303.944L398.519 297.119H427.079L434.525 303.954C435.178 304.557 435.699 305.288 436.056 306.103C436.413 306.917 436.598 307.796 436.599 308.685V316.16L388.492 315.127Z" fill="#C4C4C4"/>
<path d="M426.305 305.225C426.305 307.853 420.149 310.004 412.541 310.004C404.932 310.004 398.777 307.873 398.777 305.225C398.777 302.577 404.942 300.446 412.541 300.446C420.14 300.446 426.305 302.596 426.305 305.225Z" fill="#DBDBDB"/>
<path d="M453.919 314.095H291.923V378.318H453.919V314.095Z" fill="#DBDBDB"/>
<path d="M291.875 347.549H453.193" stroke="#808080" stroke-miterlimit="10"/>
<path d="M453.919 314.095H403.537V378.318H453.919V314.095Z" fill="#BDBDBD"/>
<path d="M457.054 314.095H288.788V320.27H457.054V314.095Z" fill="#808080"/>
<path d="M371.124 320.327L373.667 325.02H388.119L390.671 320.327H371.124Z" fill="#808080"/>
<path d="M371.124 347.349L373.667 352.042H388.119L390.671 347.349H371.124Z" fill="#808080"/>
<path d="M316.832 320.327L319.375 325.02H333.837L336.389 320.327H316.832Z" fill="#808080"/>
<path d="M316.832 347.349L319.375 352.042H333.837L336.389 347.349H316.832Z" fill="#808080"/>
<path d="M390.795 167.937H435.576" stroke="#BDBDBD" stroke-miterlimit="10"/>
<path d="M386.828 167.937H390.795" stroke="#BDBDBD" stroke-width="3" stroke-miterlimit="10"/>
<path d="M419.805 168.415V198.524" stroke="#BDBDBD" stroke-miterlimit="10"/>
<path d="M74.6894 258.522H66.8037V267.44H74.6894V258.522Z" fill="#263238" stroke="#263238" stroke-miterlimit="10"/>
<path d="M77.7768 255.091H62.6841V260.578H77.7768V255.091Z" fill="#263238" stroke="#263238" stroke-miterlimit="10"/>
<path d="M87.3829 264.697H53.4219V355.263H87.3829V264.697Z" fill="white" stroke="#263238" stroke-miterlimit="10"/>
<path d="M66.6316 300.379C71.4619 300.379 75.3776 296.463 75.3776 291.633C75.3776 286.803 71.4619 282.887 66.6316 282.887C61.8014 282.887 57.8857 286.803 57.8857 291.633C57.8857 296.463 61.8014 300.379 66.6316 300.379Z" fill="#263238" stroke="#263238" stroke-miterlimit="10"/>
<path d="M137.957 378.327L122.376 358.771H77.4327L61.9767 378.327H137.957Z" fill="white" stroke="#263238" stroke-miterlimit="10"/>
<path d="M70.5697 353.208H142.956V353.619C142.956 355.056 142.385 356.435 141.368 357.451C140.352 358.468 138.973 359.039 137.536 359.039H75.9894C74.552 359.039 73.1735 358.468 72.1571 357.451C71.1407 356.435 70.5697 355.056 70.5697 353.619V353.208Z" fill="white" stroke="#263238" stroke-miterlimit="10"/>
<path d="M113.733 233.873L100.095 242.76L101.875 245.491L115.513 236.604L113.733 233.873Z" fill="white" stroke="#263238" stroke-miterlimit="10"/>
<path d="M121.456 224.53L108.731 232.822L114.064 241.006L126.789 232.714L121.456 224.53Z" fill="#263238" stroke="#263238" stroke-miterlimit="10"/>
<path d="M71.9462 212.212H68.8588V222.162H71.9462V212.212Z" fill="#263238" stroke="#263238" stroke-miterlimit="10"/>
<path d="M73.3226 221.474H67.1479V241.031H73.3226V221.474Z" fill="white" stroke="#263238" stroke-miterlimit="10"/>
<path d="M77.4326 238.966H63.0281V250.283H77.4326V238.966Z" fill="white" stroke="#263238" stroke-miterlimit="10"/>
<path d="M100.717 233.556L84.3052 247.416L47.8781 250.627L48.7001 259.994L92.6592 256.123L107.513 245.036L100.717 233.556Z" fill="white" stroke="#263238" stroke-miterlimit="10"/>
<path d="M369.796 124.963L368.161 142.168C368.161 142.168 358.67 141.508 355.888 135.945C353.107 130.382 354.33 123.089 354.33 123.089L355.544 116.399C357.119 115.651 358.855 115.306 360.596 115.392C362.337 115.479 364.03 115.996 365.523 116.896C366.951 117.669 368.118 118.848 368.879 120.283C369.639 121.719 369.958 123.347 369.796 124.963Z" fill="#B5B5B5" stroke="#263238" stroke-miterlimit="10"/>
<path d="M302.304 180.096L337.096 171.617L354.302 123.089C354.302 123.089 358.393 130.688 361.317 134.196C364.242 137.704 369.796 140.887 369.796 140.887C369.796 140.887 363.946 172.755 361.9 182.944C359.855 193.133 359.568 194.93 356.93 197.282C354.292 199.633 322.787 219.572 322.787 219.572C322.787 219.572 333.302 239.157 334.487 252.902C335.672 266.647 336.532 282.724 336.532 282.724C336.532 282.724 310.801 241.786 301.453 229.799C292.105 217.813 288.291 199.69 290.337 190.333C292.382 180.975 302.304 180.096 302.304 180.096Z" fill="white" stroke="#263238" stroke-miterlimit="10"/>
<path d="M314.672 189.425L322.778 219.572L328.704 183.871" stroke="#263238" stroke-miterlimit="10"/>
<path d="M338.081 172.468C340.883 173.635 343.33 175.519 345.175 177.929C347.021 180.34 348.2 183.193 348.595 186.204" stroke="#263238" stroke-miterlimit="10"/>
<path d="M344.494 172.468C344.494 172.468 355.601 174.8 356.184 186.5" stroke="#263238" stroke-miterlimit="10"/>
<path d="M303.269 191.47L317.884 221.876L314.672 227.429L321.984 233.279L324.03 244.682" stroke="#263238" stroke-miterlimit="10"/>
<path d="M251.004 153.867C251.004 153.867 233.799 159.43 228.197 170.241C222.596 181.052 236.093 200.656 238.138 207.959C240.184 215.261 237.259 217.899 234.63 215.854C232.002 213.808 229.077 217.899 232.002 222.545C234.926 227.19 251.004 223.711 256.261 221.082C261.518 218.454 260.361 200.904 257.437 189.539C254.512 178.175 251.004 165.271 252.753 159.717C254.502 154.164 251.004 153.867 251.004 153.867Z" fill="#263238" stroke="#263238" stroke-miterlimit="10"/>
<path d="M305.525 130.105C305.525 130.105 314.003 140.333 314.586 144.443C314.94 146.568 315.04 148.727 314.883 150.876C314.883 150.876 318.974 155.55 319.853 156.133C320.732 156.716 323.676 158.475 321.899 160.816C321.329 161.516 320.616 162.086 319.809 162.489C319.001 162.891 318.117 163.116 317.215 163.149C317.215 163.149 317.511 172.22 316.632 176.311C315.752 180.402 314.003 181.864 310.782 182.151C307.561 182.438 303.479 182.447 303.479 182.447L300.258 198.821L304.349 220.165L273.944 187.112C273.944 187.112 276.907 175.106 276.907 172.793C276.907 170.48 272.52 166.102 276.324 153.781C280.128 141.461 305.525 130.105 305.525 130.105Z" fill="#B5B5B5" stroke="#263238" stroke-miterlimit="10"/>
<path d="M275.951 161.39C275.951 161.39 281.218 163.139 282.642 159.344C284.066 155.55 281.763 150.866 289.075 146.766C296.387 142.665 309.32 139.74 311.958 133.049C314.596 126.358 311.661 119.304 307.57 118.425C303.479 117.546 298.509 119.887 290.614 120.184C282.719 120.48 259.578 120.356 252.266 131.463C244.953 142.569 252.017 162.575 254.062 166.963C256.108 171.35 256.108 182.753 264.577 183.336C273.045 183.919 278.914 177.486 279.488 172.822C280.061 168.157 275.951 161.39 275.951 161.39Z" fill="#263238" stroke="#263238" stroke-miterlimit="10"/>
<g opacity="0.5">
<path opacity="0.5" d="M273.944 157.903L316.097 143.566C316.097 143.566 323.695 148.24 318.438 154.386L296.798 161.402L274.24 160.771L273.944 157.903Z" fill="white"/>
</g>
<path d="M273.944 157.901L316.097 143.564C316.097 143.564 323.695 148.238 318.438 154.384L296.798 161.4L274.24 160.769L273.944 157.901Z" stroke="#263238" stroke-miterlimit="10"/>
<path d="M273.944 157.882L316.049 143.554" stroke="#263238" stroke-width="2" stroke-miterlimit="10" stroke-linecap="round"/>
<path d="M292.363 152.615L296.75 161.39" stroke="#263238" stroke-miterlimit="10"/>
<path d="M281.552 163.435C280.673 163.435 273.074 153.198 269.27 156.123C265.466 159.048 268.974 169.572 273.657 171.617C278.341 173.663 282.136 168.693 282.136 168.693" fill="#B5B5B5"/>
<path d="M281.552 163.435C280.673 163.435 273.074 153.198 269.27 156.123C265.466 159.048 268.974 169.572 273.657 171.617C278.341 173.663 282.136 168.693 282.136 168.693" stroke="#263238" stroke-miterlimit="10"/>
<path d="M309.912 151.736C309.912 153.189 309.386 154.374 308.736 154.374C308.086 154.374 307.57 153.189 307.57 151.736C307.57 150.283 308.096 149.107 308.736 149.107C309.377 149.107 309.912 150.254 309.912 151.736Z" fill="#263238"/>
<path d="M273.084 183.604C273.084 183.604 288.281 196.183 296.76 209.918C305.238 223.653 326.878 248.219 330.386 256.41C333.894 264.602 336.819 273.07 336.819 280.086C336.819 287.102 337.402 340.304 337.402 341.489V378.328H247.63C247.63 378.328 253.193 301.43 253.193 285.057C253.193 268.683 246.167 253.772 251.434 230.383C256.701 206.993 265.437 193.544 273.084 183.604Z" fill="white" stroke="#263238" stroke-miterlimit="10"/>
<path d="M267.224 192.082L299.675 236.815L307.857 234.187L307.274 244.128L327.748 254.948" stroke="#263238" stroke-miterlimit="10"/>
<path d="M328.522 339.989H281.304V347.54H324.747" stroke="#263238" stroke-miterlimit="10"/>
<path d="M376.467 143.564H380.883V156.381C380.883 156.926 380.667 157.449 380.281 157.834C379.896 158.22 379.373 158.436 378.828 158.436H378.513C377.968 158.436 377.445 158.22 377.06 157.834C376.674 157.449 376.458 156.926 376.458 156.381V143.564H376.467Z" fill="white" stroke="#263238" stroke-miterlimit="10"/>
<path d="M381.954 140.839H375.416V145.255H381.954V140.839Z" fill="white" stroke="#263238" stroke-miterlimit="10"/>
<path d="M401.061 117.268C401.061 117.268 403.355 120.872 403.021 123.003C402.686 125.135 399.589 134.473 398.605 134.626C397.62 134.779 397.458 133.671 397.783 130.373C398.108 127.075 398.605 124.972 398.605 123.988C398.605 123.003 399.255 115.309 401.061 117.268Z" fill="#49BDCD" stroke="#263238" stroke-linecap="round" stroke-linejoin="round"/>
<path d="M357.035 112.852C357.035 112.852 353.269 119.4 356.079 123.156C358.89 126.913 364.921 127.257 364.921 127.257C364.921 127.257 365.877 134.617 367.377 135.764C368.878 136.911 372.443 141.986 372.94 143.783C373.437 145.58 376.869 143.296 376.869 141.814C376.869 140.333 374.412 134.454 373.753 132.82C373.093 131.185 374.575 126.76 375.062 125.288C375.28 124.536 375.602 123.819 376.018 123.156C376.018 123.156 380.797 127.744 381.256 130.363C381.715 132.982 380.434 142.636 381.744 143.745C383.053 144.854 386.523 144.567 387.144 142.598C387.765 140.629 388.951 129.216 388.951 127.219C388.951 125.221 385.835 118.54 385.835 118.54C385.835 118.54 390.91 123.615 391.073 125.412C391.235 127.209 389.763 138.67 390.585 138.995C391.086 139.29 391.663 139.433 392.244 139.404C392.825 139.375 393.385 139.176 393.854 138.832C394.783 137.778 395.506 136.559 395.986 135.238C395.986 135.238 399.255 127.544 400.564 123.94C401.874 120.337 403.021 116.293 400.077 114.774C395.677 112.482 391.141 110.462 386.494 108.723C378.15 105.445 366.364 102.988 362.111 106.104C357.857 109.22 357.035 112.852 357.035 112.852Z" fill="#49BDCD" stroke="#263238" stroke-linecap="round" stroke-linejoin="round"/>
<path d="M364.892 127.257L364.233 115.471" stroke="#263238" stroke-miterlimit="10"/>
<path d="M364.73 122.994C364.73 122.994 358.182 122.831 357.523 114.487" stroke="#263238" stroke-miterlimit="10"/>
<path d="M397.783 130.363C397.783 130.363 399.914 124.141 398.117 121.197C396.32 118.253 389.438 113.665 389.438 113.665" stroke="#263238" stroke-miterlimit="10"/>
<path d="M351.826 227.907C352.399 227.515 362.589 216.752 362.78 215.988C362.971 215.223 363.162 204.842 364.319 202.539C365.475 200.235 369.308 193.497 369.509 191.384C369.71 189.272 369.7 182.16 369.509 179.666C369.318 177.171 371.812 176.97 373.542 179.283C375.273 181.596 375.655 184.856 375.655 187.733C375.655 190.61 375.846 192.923 376.228 193.468C376.611 194.013 379.88 196.928 381.419 197.291C382.957 197.655 392.181 193.057 394.877 192.101C397.572 191.145 399.293 183.26 399.656 182.485C400.019 181.711 400.239 175.957 400.43 174.609C400.621 173.261 403.116 171.531 404.082 174.8C405.047 178.069 404.655 185.754 404.464 187.867C404.273 189.979 404.464 194.405 403.508 195.561C402.552 196.718 396.397 202.09 395.861 202.864C395.326 203.638 392.994 211.122 392.21 212.279C391.426 213.435 384.907 215.93 380.491 218.616C377.296 220.671 374.275 222.986 371.459 225.536C371.815 225.929 372.013 226.44 372.013 226.97C372.013 227.5 371.815 228.012 371.459 228.404C370.325 229.384 369.032 230.163 367.635 230.708L363.602 240.323L351.826 227.907Z" fill="#B5B5B5" stroke="#263238" stroke-miterlimit="10"/>
<path d="M392.181 212.384C392.956 211.228 395.259 203.782 395.833 202.969C396.406 202.157 402.524 196.813 403.479 195.666C404.435 194.519 404.254 190.094 404.435 187.972C404.617 185.85 405.009 178.175 404.053 174.906C403.097 171.637 400.593 173.367 400.402 174.714C400.21 176.062 400.019 181.826 399.627 182.591C399.235 183.355 397.515 191.241 394.848 192.206C392.181 193.172 382.929 197.779 381.39 197.397C379.851 197.014 376.611 194.128 376.2 193.573C375.789 193.019 375.626 190.706 375.626 187.838C375.626 184.971 375.244 181.692 373.514 179.388C371.784 177.085 369.279 177.267 369.48 179.771C369.681 182.275 369.671 189.329 369.48 191.489C369.289 193.65 365.437 200.331 364.29 202.644C363.143 204.957 362.933 215.252 362.78 215.988C361.037 218.236 359.16 220.378 357.159 222.401L367.415 231.185L367.578 230.784C368.974 230.239 370.267 229.46 371.401 228.48C371.758 228.088 371.956 227.577 371.956 227.047C371.956 226.516 371.758 226.005 371.401 225.613C374.218 223.063 377.239 220.748 380.434 218.693C384.917 215.988 391.417 213.493 392.181 212.384Z" fill="#49BDCD" stroke="#263238" stroke-linecap="round" stroke-linejoin="round"/>
<path d="M395.833 202.921L389.304 207.72" stroke="#263238" stroke-miterlimit="10"/>
<path d="M266.393 214.019C266.393 214.019 276.334 212.26 282.183 216.934C288.033 221.608 290.079 230.383 290.365 231.271C290.652 232.16 318.094 257.309 318.094 257.309L352.59 225.431L369.557 242.101C369.557 242.101 347.916 269.582 336.81 280.105C325.703 290.629 317.511 295.59 315.466 296.498C313.42 297.406 311.375 296.498 309.033 295.036C306.691 293.573 258.163 244.749 258.163 244.749" fill="white"/>
<path d="M266.393 214.019C266.393 214.019 276.334 212.26 282.183 216.934C288.033 221.608 290.079 230.383 290.365 231.271C290.652 232.16 318.094 257.309 318.094 257.309L352.59 225.431L369.557 242.101C369.557 242.101 347.916 269.582 336.81 280.105C325.703 290.629 317.511 295.59 315.466 296.498C313.42 297.406 311.375 296.498 309.033 295.036C306.691 293.573 258.163 244.749 258.163 244.749" stroke="#263238" stroke-miterlimit="10"/>
<path d="M265.762 234.483C265.762 234.483 274.823 226.005 279.507 225.708C284.19 225.412 287.393 229.216 287.393 229.216" stroke="#263238" stroke-miterlimit="10"/>
<path d="M261.078 227.467C261.078 227.467 272.195 220.155 278.628 223.644" stroke="#263238" stroke-miterlimit="10"/>
<path d="M318.094 257.309C318.094 257.309 310.495 273.386 311.661 280.985" stroke="#263238" stroke-miterlimit="10"/>
<path d="M316.632 258.159C311.575 261.648 307.779 266.677 305.812 272.497" stroke="#263238" stroke-miterlimit="10"/>
<path d="M387.039 164.095H391.455V176.913C391.445 177.45 391.225 177.961 390.843 178.338C390.461 178.715 389.946 178.927 389.409 178.93H389.094C388.549 178.93 388.026 178.713 387.641 178.328C387.255 177.942 387.039 177.42 387.039 176.875V164.095Z" fill="white" stroke="#263238" stroke-miterlimit="10"/>
<path d="M392.526 161.409H385.988V165.825H392.526V161.409Z" fill="white" stroke="#263238" stroke-miterlimit="10"/>
<path d="M395.307 164.095H399.723V176.913C399.723 177.458 399.506 177.981 399.121 178.366C398.736 178.751 398.213 178.968 397.668 178.968H397.343C396.798 178.968 396.275 178.751 395.89 178.366C395.504 177.981 395.288 177.458 395.288 176.913V164.095H395.307Z" fill="white" stroke="#263238" stroke-miterlimit="10"/>
<path d="M400.784 161.409H394.246V165.825H400.784V161.409Z" fill="white" stroke="#263238" stroke-miterlimit="10"/>
<path d="M402.562 170.824H374.498V185.238H402.562V170.824Z" fill="#263238" stroke="#263238" stroke-miterlimit="10"/>
<path d="M118.763 204.288C118.763 204.288 118.429 215.366 120.78 219.734C123.131 224.103 127.155 225.775 127.471 229.474C127.786 233.174 126.123 238.201 128.475 239.549C130.826 240.897 147.591 257.71 152.992 257.347C158.392 256.984 164.118 249.289 164.118 249.289L176.209 257.012L192.325 223.768L181.581 214.028C181.581 214.028 177.213 187.828 171.172 180.44C165.131 173.051 142.631 171.044 131.208 176.416C119.786 181.788 115.762 193.879 113.047 196.23C110.333 198.582 104.665 200.914 107.723 205.292C110.782 209.669 118.763 204.288 118.763 204.288Z" fill="white" stroke="#263238" stroke-miterlimit="10"/>
<path d="M178.541 220.738C179.822 219.782 181.103 217.182 182.154 214.554L181.562 214.028C181.562 214.028 177.194 187.828 171.153 180.44C165.112 173.051 142.611 171.044 131.189 176.416C119.767 181.788 115.743 193.879 113.028 196.23C110.314 198.582 104.665 200.914 107.723 205.292C110.591 209.364 117.731 204.967 118.687 204.336L118.801 204.269C121.919 203.281 124.953 202.044 127.872 200.57C130.59 198.994 133.173 197.197 135.596 195.198C135.596 195.198 128.541 206.955 131.227 210.644C133.913 214.334 141.971 212.661 141.971 212.661C141.971 212.661 147.343 219.715 150.707 218.033C154.072 216.351 149.36 209.975 154.397 207.624C159.434 205.273 163.468 215.347 163.468 217.029C163.468 218.712 175.521 223.089 178.541 220.738Z" fill="#263238" stroke="#263238" stroke-miterlimit="10"/>
<path d="M182.202 214.611L158.727 241.9C158.727 241.9 152.992 241.222 148.987 238.201C144.982 235.181 141.598 227.792 141.598 227.792C141.598 227.792 158.727 208.991 167.454 203.619C175.1 198.926 177.586 198.075 178.092 197.884C177.796 196.747 177.48 195.6 177.136 194.462C175.311 195.265 169.958 197.951 161.394 204.909C152.036 212.556 132.231 232.342 127.28 237.332C127.296 237.762 127.413 238.183 127.623 238.56C127.832 238.937 128.127 239.26 128.484 239.501C130.835 240.839 147.601 257.662 153.001 257.299C154.106 257.193 155.178 256.868 156.156 256.343C157.188 252.157 158.956 245.829 160.39 243.181C162.13 239.998 179.373 221.302 184.057 216.246L182.202 214.611Z" fill="#49BDCD" stroke="#263238" stroke-linecap="round" stroke-linejoin="round"/>
<path d="M152.342 219.075C152.342 219.075 149.321 208.322 153.355 206.314C157.389 204.307 162.416 208.666 163.095 213.359C163.774 218.052 161.413 223.778 161.413 223.778C162.817 226.816 163.286 230.203 162.76 233.508" fill="white"/>
<path d="M152.342 219.075C152.342 219.075 149.321 208.322 153.355 206.314C157.389 204.307 162.416 208.666 163.095 213.359C163.774 218.052 161.413 223.778 161.413 223.778C162.817 226.816 163.286 230.203 162.76 233.508" stroke="#263238" stroke-miterlimit="10"/>
<path d="M135.07 227.381C135.739 228.681 135.729 230.01 135.07 230.354C134.41 230.698 133.311 229.933 132.642 228.633C131.973 227.333 131.982 226.005 132.642 225.661C133.301 225.317 134.401 226.081 135.07 227.381Z" fill="#263238"/>
<path d="M126.391 221.14C126.391 221.14 126.783 216.446 132.451 217.421" stroke="#263238" stroke-miterlimit="10"/>
<path d="M191.675 219.83L166.288 260.31L176.238 267.517L199.56 223.606L191.675 219.83Z" fill="white" stroke="#263238" stroke-miterlimit="10"/>
<path d="M197.849 224.294C197.849 224.294 178.293 258.264 174.517 265.806C170.742 273.348 159.769 291.872 159.081 302.854C158.392 313.837 154.97 378.366 154.97 378.366H233.894C233.894 378.366 239.734 329.312 239.39 310.444C239.046 291.575 234.238 263.78 219.834 244.911C205.429 226.043 197.849 224.294 197.849 224.294Z" fill="white" stroke="#263238" stroke-miterlimit="10"/>
<path d="M204.712 229.436C204.712 229.436 193.041 251.421 185.156 264.085C177.27 276.75 166.985 290.505 164.232 298.41C161.48 306.315 161.48 309.736 161.48 309.736" stroke="#263238" stroke-miterlimit="10"/>
<path d="M103.508 315.892L94.2458 309.029C94.2458 309.029 89.7821 297.712 87.0388 294.625C84.2955 291.537 80.52 292.216 78.1208 289.473C75.7216 286.729 72.9784 280.555 71.602 279.914C70.2256 279.274 67.1478 280.947 67.1478 283.69C67.1478 286.433 70.2351 290.897 70.2351 291.92V292.952C70.2351 292.952 58.5643 289.52 57.1975 290.553C55.8306 291.585 54.4542 295.007 55.4769 296.727C56.4997 298.448 58.5643 299.127 58.5643 300.503C58.5643 301.879 56.1651 306.334 57.5416 308.045C58.4979 309.172 59.6631 310.103 60.973 310.788C60.973 310.788 60.973 317.307 63.0281 320.05C65.0831 322.793 80.8641 324.829 85.6719 325.546C90.4798 326.263 104.54 333.088 104.54 333.088L103.508 315.892Z" fill="#49BDCD" stroke="#263238" stroke-linecap="round" stroke-linejoin="round"/>
<path d="M194.418 256.888C194.418 256.888 179.669 264.085 174.173 282.954C168.677 301.822 165.255 321.379 165.255 321.379C165.255 321.379 161.824 320.69 161.824 322.755C161.859 323.795 161.743 324.835 161.48 325.842L101.797 314.516L100.421 342.646C100.421 342.646 177.949 357.06 182.068 357.06C186.188 357.06 190.671 355.684 192.019 352.281C193.366 348.878 215.685 298.754 215.685 298.754" fill="white"/>
<path d="M194.418 256.888C194.418 256.888 179.669 264.085 174.173 282.954C168.677 301.822 165.255 321.379 165.255 321.379C165.255 321.379 161.824 320.69 161.824 322.755C161.859 323.795 161.743 324.835 161.48 325.842L101.797 314.516L100.421 342.646C100.421 342.646 177.949 357.06 182.068 357.06C186.188 357.06 190.671 355.684 192.019 352.281C193.366 348.878 215.685 298.754 215.685 298.754" stroke="#263238" stroke-miterlimit="10"/>
<path d="M201.281 272.669C201.281 272.669 212.942 279.178 214.997 288.106" stroke="#263238" stroke-miterlimit="10"/>
<path d="M193.042 282.61C194.074 282.61 211.575 283.986 215.341 293.936" stroke="#263238" stroke-miterlimit="10"/>
<path d="M209.167 313.149C209.167 313.149 222.548 306.974 226.668 293.592" stroke="#263238" stroke-miterlimit="10"/>
<path d="M164.577 326.186C164.577 326.186 171.43 338.87 171.086 347.798" stroke="#263238" stroke-miterlimit="10"/>
<path d="M168.687 324.122C168.687 324.122 175.588 325.498 180.367 334.732" stroke="#263238" stroke-miterlimit="10"/>
<path d="M260.935 311.084H248.576C247.415 311.132 246.302 311.562 245.41 312.307C244.518 313.051 243.897 314.07 243.644 315.204L230.883 378.289H251.462L264.223 315.204C264.355 314.709 264.369 314.189 264.263 313.688C264.158 313.186 263.937 312.716 263.617 312.315C263.297 311.915 262.888 311.595 262.422 311.381C261.957 311.167 261.447 311.065 260.935 311.084V311.084Z" fill="#263238" stroke="#263238" stroke-miterlimit="10"/>
<path d="M0 378.328H465.466" stroke="#263238" stroke-miterlimit="10"/>
<path d="M24.1924 333.489H32.489V372.344C32.489 373.358 32.0862 374.33 31.3692 375.047C30.6522 375.765 29.6797 376.167 28.6657 376.167H28.0731C27.059 376.167 26.0866 375.765 25.3695 375.047C24.6525 374.33 24.2497 373.358 24.2497 372.344V333.489H24.1924Z" fill="white" stroke="#263238" stroke-linecap="round" stroke-linejoin="round"/>
<path d="M24.1924 349.232V372.009C24.1924 373.11 24.6294 374.165 25.4074 374.943C26.1853 375.721 27.2405 376.158 28.3407 376.158C29.4409 376.158 30.4961 375.721 31.274 374.943C32.052 374.165 32.489 373.11 32.489 372.009V349.232H24.1924Z" fill="#49BDCD" stroke="#263238" stroke-linecap="round" stroke-linejoin="round"/>
<path d="M33.9515 332.266H22.7204V340.075H33.9515V332.266Z" fill="white" stroke="#263238" stroke-linecap="round" stroke-linejoin="round"/>
<path d="M44.4848 376.186C43.9368 376.188 43.394 376.08 42.8877 375.871C42.3814 375.661 41.9217 375.353 41.5351 374.965C41.1485 374.576 40.8427 374.115 40.6353 373.608C40.4279 373.101 40.3231 372.557 40.3269 372.009V333.489H48.6332V372.009C48.6369 372.557 48.5324 373.099 48.3257 373.606C48.1189 374.112 47.8139 374.573 47.4283 374.961C47.0427 375.35 46.5842 375.658 46.079 375.868C45.5738 376.078 45.032 376.186 44.4848 376.186V376.186Z" fill="white" stroke="#263238" stroke-linecap="round" stroke-linejoin="round"/>
<path d="M40.3269 349.232V372.009C40.3781 373.076 40.8381 374.083 41.6113 374.82C42.3846 375.557 43.4118 375.968 44.4801 375.968C45.5483 375.968 46.5756 375.557 47.3488 374.82C48.1221 374.083 48.582 373.076 48.6332 372.009V349.232H40.3269Z" fill="#49BDCD" stroke="#263238" stroke-linecap="round" stroke-linejoin="round"/>
<path d="M50.0956 332.266H38.8645V340.075H50.0956V332.266Z" fill="white" stroke="#263238" stroke-linecap="round" stroke-linejoin="round"/>
<path d="M60.6194 376.186C60.0722 376.186 59.5304 376.078 59.0252 375.868C58.5201 375.658 58.0615 375.35 57.6759 374.961C57.2903 374.573 56.9853 374.112 56.7786 373.606C56.5718 373.099 56.4673 372.557 56.471 372.009V333.489H64.7773V372.009C64.7811 372.557 64.6763 373.101 64.4689 373.608C64.2615 374.115 63.9557 374.576 63.5691 374.965C63.1825 375.353 62.7228 375.661 62.2165 375.871C61.7102 376.08 61.1674 376.188 60.6194 376.186V376.186Z" fill="white" stroke="#263238" stroke-linecap="round" stroke-linejoin="round"/>
<path d="M56.4711 349.232V372.009C56.4711 373.11 56.9081 374.165 57.6861 374.943C58.4641 375.721 59.5192 376.158 60.6194 376.158C61.165 376.159 61.7055 376.053 62.2099 375.845C62.7143 375.637 63.1727 375.332 63.5589 374.946C63.9451 374.561 64.2516 374.103 64.4606 373.599C64.6697 373.095 64.7773 372.555 64.7773 372.009V349.232H56.4711Z" fill="#49BDCD" stroke="#263238" stroke-linecap="round" stroke-linejoin="round"/>
<path d="M66.2397 332.266H55.0086V340.075H66.2397V332.266Z" fill="white" stroke="#263238" stroke-linecap="round" stroke-linejoin="round"/>
<path d="M76.7635 376.186C76.2163 376.186 75.6745 376.078 75.1693 375.868C74.6642 375.658 74.2056 375.35 73.82 374.961C73.4344 374.573 73.1294 374.112 72.9227 373.606C72.7159 373.099 72.6114 372.557 72.6152 372.009V333.489H80.9596V372.009C80.9635 372.561 80.8574 373.107 80.6477 373.617C80.4379 374.127 80.1287 374.589 79.738 374.978C79.3473 375.367 78.8831 375.674 78.3724 375.882C77.8616 376.089 77.3147 376.193 76.7635 376.186V376.186Z" fill="white" stroke="#263238" stroke-linecap="round" stroke-linejoin="round"/>
<path d="M72.6152 349.232V372.009C72.6152 373.116 73.0547 374.177 73.8372 374.96C74.6196 375.742 75.6809 376.182 76.7874 376.182C77.894 376.182 78.9552 375.742 79.7376 374.96C80.5201 374.177 80.9597 373.116 80.9597 372.009V349.232H72.6152Z" fill="#49BDCD" stroke="#263238" stroke-linecap="round" stroke-linejoin="round"/>
<path d="M82.3838 332.266H71.1527V340.075H82.3838V332.266Z" fill="white" stroke="#263238" stroke-linecap="round" stroke-linejoin="round"/>
<path d="M89.3998 344.29H17.1096V346.747H89.3998V372.363H13.6017V378.328H94.3128V376.922V372.363V346.747V344.29H89.3998Z" fill="white" stroke="#263238" stroke-linecap="round" stroke-linejoin="round"/>
<path d="M360.4 373.462L350.946 336.748V326.712H337.565V336.748L328.111 373.462C327.962 374.038 327.947 374.64 328.067 375.223C328.187 375.805 328.439 376.353 328.804 376.822C329.169 377.292 329.636 377.672 330.171 377.933C330.705 378.194 331.292 378.329 331.887 378.328H356.624C357.219 378.329 357.806 378.194 358.34 377.933C358.875 377.672 359.342 377.292 359.707 376.822C360.072 376.353 360.324 375.805 360.444 375.223C360.564 374.64 360.549 374.038 360.4 373.462V373.462Z" fill="white" stroke="#263238" stroke-miterlimit="10"/>
<path d="M352.657 354.909H335.854L330.893 374.179C330.849 374.329 330.842 374.488 330.874 374.642C330.906 374.795 330.975 374.938 331.075 375.059C331.165 375.186 331.286 375.289 331.426 375.359C331.566 375.429 331.721 375.464 331.877 375.46H356.624C356.782 375.466 356.939 375.432 357.081 375.362C357.223 375.292 357.345 375.188 357.437 375.059C357.537 374.938 357.605 374.795 357.637 374.642C357.669 374.488 357.662 374.329 357.618 374.179L352.657 354.909Z" fill="#49BDCD"/>
<path d="M387.622 343.611V322.411H375.196V343.611C371.251 345.069 367.944 347.869 365.855 351.519C363.766 355.169 363.027 359.438 363.767 363.578C364.508 367.718 366.681 371.466 369.906 374.165C373.131 376.865 377.203 378.344 381.409 378.344C385.615 378.344 389.687 376.865 392.912 374.165C396.137 371.466 398.31 367.718 399.051 363.578C399.792 359.438 399.053 355.169 396.963 351.519C394.874 347.869 391.567 345.069 387.622 343.611V343.611Z" fill="white" stroke="#263238" stroke-miterlimit="10"/>
<path d="M366.068 355.865C365.357 358.255 365.214 360.777 365.65 363.231C366.087 365.685 367.09 368.004 368.58 370.002C370.071 372 372.007 373.622 374.235 374.74C376.463 375.858 378.921 376.44 381.414 376.44C383.906 376.44 386.365 375.858 388.593 374.74C390.821 373.622 392.757 372 394.247 370.002C395.738 368.004 396.741 365.685 397.177 363.231C397.613 360.777 397.47 358.255 396.76 355.865H366.068Z" fill="#49BDCD"/>
<path d="M424.46 355.416V316.571H416.259V355.416C413.654 356.378 411.47 358.226 410.09 360.636C408.71 363.047 408.222 365.865 408.711 368.599C409.2 371.333 410.634 373.808 412.764 375.59C414.894 377.373 417.582 378.349 420.359 378.349C423.137 378.349 425.825 377.373 427.955 375.59C430.084 373.808 431.519 371.333 432.008 368.599C432.497 365.865 432.009 363.047 430.629 360.636C429.249 358.226 427.065 356.378 424.46 355.416V355.416Z" fill="white" stroke="#263238" stroke-miterlimit="10"/>
<path d="M410.237 363.502C409.944 364.473 409.796 365.481 409.798 366.494C409.755 367.909 409.997 369.317 410.509 370.636C411.021 371.956 411.792 373.159 412.778 374.174C413.763 375.19 414.942 375.997 416.245 376.548C417.549 377.1 418.949 377.384 420.364 377.384C421.779 377.384 423.18 377.1 424.483 376.548C425.786 375.997 426.966 375.19 427.951 374.174C428.937 373.159 429.708 371.956 430.22 370.636C430.732 369.317 430.974 367.909 430.931 366.494C430.933 365.481 430.784 364.473 430.491 363.502H410.237Z" fill="#49BDCD"/>
</svg>
