<svg width="70" height="70" viewBox="0 0 70 70" fill="none" xmlns="http://www.w3.org/2000/svg">
<circle cx="35" cy="35" r="35" fill="#49BDCD"/>
<path d="M18.064 48V26.832H10.864V22.224H30.124V26.832H22.924V48H18.064ZM44.6944 48.576C42.7744 48.576 40.9864 48.228 39.3304 47.532C37.6984 46.836 36.2824 45.888 35.0824 44.688C33.8824 43.464 32.9344 42.036 32.2384 40.404C31.5664 38.748 31.2304 36.984 31.2304 35.112C31.2304 33.24 31.5664 31.488 32.2384 29.856C32.9344 28.2 33.8824 26.772 35.0824 25.572C36.2824 24.348 37.6984 23.388 39.3304 22.692C40.9864 21.996 42.7744 21.648 44.6944 21.648C46.6144 21.648 48.3904 21.996 50.0224 22.692C51.6784 23.388 53.1064 24.348 54.3064 25.572C55.5064 26.772 56.4424 28.2 57.1144 29.856C57.8104 31.488 58.1584 33.24 58.1584 35.112C58.1584 36.984 57.8104 38.748 57.1144 40.404C56.4424 42.036 55.5064 43.464 54.3064 44.688C53.1064 45.888 51.6784 46.836 50.0224 47.532C48.3904 48.228 46.6144 48.576 44.6944 48.576ZM44.6944 43.968C45.8944 43.968 47.0104 43.752 48.0424 43.32C49.0984 42.888 50.0104 42.288 50.7784 41.52C51.5704 40.752 52.1824 39.828 52.6144 38.748C53.0704 37.644 53.2984 36.432 53.2984 35.112C53.2984 33.792 53.0704 32.592 52.6144 31.512C52.1824 30.408 51.5704 29.472 50.7784 28.704C50.0104 27.936 49.0984 27.336 48.0424 26.904C47.0104 26.472 45.8944 26.256 44.6944 26.256C43.4944 26.256 42.3664 26.472 41.3104 26.904C40.2784 27.336 39.3664 27.936 38.5744 28.704C37.8064 29.472 37.1944 30.408 36.7384 31.512C36.3064 32.592 36.0904 33.792 36.0904 35.112C36.0904 36.432 36.3064 37.644 36.7384 38.748C37.1944 39.828 37.8064 40.752 38.5744 41.52C39.3664 42.288 40.2784 42.888 41.3104 43.32C42.3664 43.752 43.4944 43.968 44.6944 43.968Z" fill="white"/>
</svg>
