<svg width="287" height="70" viewBox="0 0 287 70" fill="none" xmlns="http://www.w3.org/2000/svg">
<path d="M100.848 11.416V29H98.272V11.416H92.672V8.952H106.448V11.416H100.848ZM109.597 29H107.021V15.28H109.485V17.52H109.597C109.858 16.792 110.39 16.176 111.193 15.672C112.014 15.1493 112.817 14.888 113.601 14.888C114.348 14.888 114.982 15 115.505 15.224L114.721 17.716C114.404 17.5853 113.9 17.52 113.209 17.52C112.238 17.52 111.389 17.912 110.661 18.696C109.952 19.48 109.597 20.3947 109.597 21.44V29ZM129.73 15.28L121.134 35.048H118.474L121.666 28.132L116.01 15.28H118.81L122.898 25.136H122.954L126.93 15.28H129.73ZM157.093 18.976C157.093 21.944 156.104 24.4267 154.125 26.424C152.128 28.44 149.683 29.448 146.789 29.448C143.877 29.448 141.432 28.44 139.453 26.424C137.475 24.4267 136.485 21.944 136.485 18.976C136.485 16.008 137.475 13.5253 139.453 11.528C141.432 9.512 143.877 8.504 146.789 8.504C149.701 8.504 152.147 9.52133 154.125 11.556C156.104 13.5533 157.093 16.0267 157.093 18.976ZM139.117 18.976C139.117 21.2907 139.845 23.204 141.301 24.716C142.776 26.228 144.605 26.984 146.789 26.984C148.973 26.984 150.793 26.228 152.249 24.716C153.724 23.2227 154.461 21.3093 154.461 18.976C154.461 16.6427 153.724 14.7293 152.249 13.236C150.793 11.724 148.973 10.968 146.789 10.968C144.605 10.968 142.776 11.724 141.301 13.236C139.845 14.748 139.117 16.6613 139.117 18.976ZM171.725 29H169.261V27.096H169.149C168.757 27.768 168.151 28.328 167.329 28.776C166.527 29.224 165.687 29.448 164.809 29.448C163.129 29.448 161.832 28.972 160.917 28.02C160.021 27.0493 159.573 25.6773 159.573 23.904V15.28H162.149V23.736C162.205 25.976 163.335 27.096 165.537 27.096C166.564 27.096 167.423 26.6853 168.113 25.864C168.804 25.024 169.149 24.0253 169.149 22.868V15.28H171.725V29ZM180.43 29.224C179.31 29.224 178.376 28.8787 177.63 28.188C176.902 27.4973 176.528 26.536 176.51 25.304V17.632H174.102V15.28H176.51V11.08H179.086V15.28H182.446V17.632H179.086V24.464C179.086 25.3787 179.263 26.004 179.618 26.34C179.972 26.6573 180.374 26.816 180.822 26.816C181.027 26.816 181.223 26.7973 181.41 26.76C181.615 26.704 181.802 26.6387 181.97 26.564L182.782 28.86C182.11 29.1027 181.326 29.224 180.43 29.224ZM106.392 57.652C106.392 59.4067 105.748 60.816 104.46 61.88C103.153 62.9253 101.567 63.448 99.7 63.448C98.0387 63.448 96.5733 62.9627 95.304 61.992C94.0347 61.0213 93.1573 59.696 92.672 58.016L95.136 57.008C95.304 57.6053 95.5373 58.1467 95.836 58.632C96.1347 59.1173 96.48 59.5373 96.872 59.892C97.2827 60.228 97.7307 60.4987 98.216 60.704C98.7013 60.8907 99.2147 60.984 99.756 60.984C100.932 60.984 101.893 60.6853 102.64 60.088C103.387 59.472 103.76 58.66 103.76 57.652C103.76 56.812 103.452 56.0933 102.836 55.496C102.257 54.9173 101.175 54.3573 99.588 53.816C97.9827 53.2373 96.984 52.8453 96.592 52.64C94.464 51.5573 93.4 49.9613 93.4 47.852C93.4 46.3773 93.988 45.1173 95.164 44.072C96.3587 43.0267 97.824 42.504 99.56 42.504C101.091 42.504 102.416 42.896 103.536 43.68C104.656 44.4453 105.403 45.4067 105.776 46.564L103.368 47.572C103.144 46.8253 102.696 46.2093 102.024 45.724C101.371 45.22 100.568 44.968 99.616 44.968C98.608 44.968 97.7587 45.248 97.068 45.808C96.3773 46.3307 96.032 47.012 96.032 47.852C96.032 48.5427 96.3027 49.14 96.844 49.644C97.4413 50.148 98.7387 50.7453 100.736 51.436C102.771 52.1267 104.217 52.976 105.076 53.984C105.953 54.9733 106.392 56.196 106.392 57.652ZM112.377 44.548C112.377 45.052 112.199 45.4813 111.845 45.836C111.49 46.1907 111.061 46.368 110.557 46.368C110.053 46.368 109.623 46.1907 109.269 45.836C108.914 45.4813 108.737 45.052 108.737 44.548C108.737 44.044 108.914 43.6147 109.269 43.26C109.623 42.9053 110.053 42.728 110.557 42.728C111.061 42.728 111.49 42.9053 111.845 43.26C112.199 43.6147 112.377 44.044 112.377 44.548ZM111.845 49.28V63H109.269V49.28H111.845ZM121.917 61.096C123.149 61.096 124.185 60.6293 125.025 59.696C125.865 58.7813 126.285 57.596 126.285 56.14C126.285 54.7027 125.865 53.5173 125.025 52.584C124.185 51.6507 123.149 51.184 121.917 51.184C120.666 51.184 119.621 51.6507 118.781 52.584C117.96 53.5173 117.549 54.7027 117.549 56.14C117.549 57.596 117.96 58.7907 118.781 59.724C119.621 60.6387 120.666 61.096 121.917 61.096ZM122.337 63.448C121.329 63.448 120.405 63.2333 119.565 62.804C118.744 62.3747 118.109 61.8053 117.661 61.096H117.549L117.661 63V69.048H115.085V49.28H117.549V51.184H117.661C118.109 50.4747 118.744 49.9053 119.565 49.476C120.405 49.0467 121.329 48.832 122.337 48.832C124.148 48.832 125.678 49.5413 126.929 50.96C128.217 52.3973 128.861 54.124 128.861 56.14C128.861 58.1747 128.217 59.9013 126.929 61.32C125.678 62.7387 124.148 63.448 122.337 63.448ZM137.38 63.448C135.364 63.448 133.703 62.7573 132.396 61.376C131.09 59.9947 130.436 58.2493 130.436 56.14C130.436 54.0493 131.071 52.3133 132.34 50.932C133.61 49.532 135.234 48.832 137.212 48.832C139.247 48.832 140.862 49.4947 142.056 50.82C143.27 52.1267 143.876 53.9653 143.876 56.336L143.848 56.616H133.068C133.106 57.96 133.554 59.0427 134.412 59.864C135.271 60.6853 136.298 61.096 137.492 61.096C139.135 61.096 140.423 60.2747 141.356 58.632L143.652 59.752C143.036 60.9093 142.178 61.8147 141.076 62.468C139.994 63.1213 138.762 63.448 137.38 63.448ZM133.264 54.488H141.132C141.058 53.536 140.666 52.752 139.956 52.136C139.266 51.5013 138.332 51.184 137.156 51.184C136.186 51.184 135.346 51.4827 134.636 52.08C133.946 52.6773 133.488 53.48 133.264 54.488ZM146.232 49.28H148.696V51.184H148.808C149.2 50.512 149.797 49.952 150.6 49.504C151.421 49.056 152.271 48.832 153.148 48.832C154.828 48.832 156.116 49.3173 157.012 50.288C157.927 51.24 158.384 52.6027 158.384 54.376V63H155.808V54.544C155.752 52.304 154.623 51.184 152.42 51.184C151.393 51.184 150.535 51.604 149.844 52.444C149.153 53.2653 148.808 54.2547 148.808 55.412V63H146.232V49.28ZM163.984 63H161.408V49.28H163.872V51.184H163.984C164.376 50.512 164.973 49.952 165.776 49.504C166.597 49.056 167.409 48.832 168.212 48.832C169.22 48.832 170.107 49.0653 170.872 49.532C171.637 49.9987 172.197 50.6427 172.552 51.464C173.691 49.7093 175.268 48.832 177.284 48.832C178.871 48.832 180.093 49.3173 180.952 50.288C181.811 51.2587 182.24 52.64 182.24 54.432V63H179.664V54.824C179.664 53.536 179.431 52.612 178.964 52.052C178.497 51.4733 177.713 51.184 176.612 51.184C175.623 51.184 174.792 51.604 174.12 52.444C173.448 53.284 173.112 54.2733 173.112 55.412V63H170.536V54.824C170.536 53.536 170.303 52.612 169.836 52.052C169.369 51.4733 168.585 51.184 167.484 51.184C166.495 51.184 165.664 51.604 164.992 52.444C164.32 53.284 163.984 54.2733 163.984 55.412V63ZM186.991 58.8C186.991 59.472 187.271 60.032 187.831 60.48C188.41 60.928 189.082 61.152 189.847 61.152C190.93 61.152 191.891 60.7507 192.731 59.948C193.59 59.1453 194.019 58.2027 194.019 57.12C193.216 56.4853 192.096 56.168 190.659 56.168C189.614 56.168 188.736 56.42 188.027 56.924C187.336 57.428 186.991 58.0533 186.991 58.8ZM190.323 48.832C192.227 48.832 193.73 49.3453 194.831 50.372C195.932 51.38 196.483 52.7707 196.483 54.544V63H194.019V61.096H193.907C192.843 62.664 191.424 63.448 189.651 63.448C188.139 63.448 186.87 63 185.843 62.104C184.835 61.208 184.331 60.088 184.331 58.744C184.331 57.3253 184.863 56.196 185.927 55.356C187.01 54.516 188.447 54.096 190.239 54.096C191.77 54.096 193.03 54.376 194.019 54.936V54.348C194.019 53.452 193.664 52.696 192.955 52.08C192.246 51.4453 191.415 51.128 190.463 51.128C189.026 51.128 187.887 51.7347 187.047 52.948L184.779 51.52C186.03 49.728 187.878 48.832 190.323 48.832ZM201.964 63H199.388V49.28H201.852V51.52H201.964C202.226 50.792 202.758 50.176 203.56 49.672C204.382 49.1493 205.184 48.888 205.968 48.888C206.715 48.888 207.35 49 207.872 49.224L207.088 51.716C206.771 51.5853 206.267 51.52 205.576 51.52C204.606 51.52 203.756 51.912 203.028 52.696C202.319 53.48 201.964 54.3947 201.964 55.44V63ZM221.6 63H219.136V61.096H219.024C218.632 61.768 218.026 62.328 217.204 62.776C216.402 63.224 215.562 63.448 214.684 63.448C213.004 63.448 211.707 62.972 210.792 62.02C209.896 61.0493 209.448 59.6773 209.448 57.904V49.28H212.024V57.736C212.08 59.976 213.21 61.096 215.412 61.096C216.439 61.096 217.298 60.6853 217.988 59.864C218.679 59.024 219.024 58.0253 219.024 56.868V49.28H221.6V63ZM242.648 60.536V63H230.44V60.424L235.396 55.412C237.058 53.7133 238.206 52.444 238.84 51.604C239.475 50.7453 239.792 49.8493 239.792 48.916C239.792 48.076 239.466 47.3573 238.812 46.76C238.159 46.1627 237.319 45.864 236.292 45.864C235.415 45.864 234.659 46.1253 234.024 46.648C233.39 47.1707 232.979 47.8053 232.792 48.552L230.44 47.6C230.814 46.424 231.532 45.4347 232.596 44.632C233.66 43.8107 234.911 43.4 236.348 43.4C238.084 43.4 239.531 43.932 240.688 44.996C241.846 46.06 242.424 47.3667 242.424 48.916C242.424 50.764 241.407 52.7613 239.372 54.908L233.772 60.536H242.648ZM245.099 53.424C245.099 50.512 245.818 48.1133 247.255 46.228C248.693 44.3427 250.541 43.4 252.799 43.4C255.058 43.4 256.906 44.352 258.343 46.256C259.781 48.1413 260.499 50.5307 260.499 53.424C260.499 56.2987 259.781 58.6973 258.343 60.62C256.906 62.5053 255.058 63.448 252.799 63.448C250.541 63.448 248.693 62.5053 247.255 60.62C245.818 58.6973 245.099 56.2987 245.099 53.424ZM257.867 53.424C257.867 51.2213 257.401 49.4107 256.467 47.992C255.553 46.5733 254.33 45.864 252.799 45.864C251.269 45.864 250.046 46.5733 249.131 47.992C248.198 49.4107 247.731 51.2213 247.731 53.424C247.731 55.6267 248.198 57.4467 249.131 58.884C250.046 60.284 251.269 60.984 252.799 60.984C254.33 60.984 255.553 60.2747 256.467 58.856C257.401 57.4187 257.867 55.608 257.867 53.424ZM274.777 60.536V63H262.569V60.424L267.525 55.412C269.187 53.7133 270.335 52.444 270.969 51.604C271.604 50.7453 271.921 49.8493 271.921 48.916C271.921 48.076 271.595 47.3573 270.941 46.76C270.288 46.1627 269.448 45.864 268.421 45.864C267.544 45.864 266.788 46.1253 266.153 46.648C265.519 47.1707 265.108 47.8053 264.921 48.552L262.569 47.6C262.943 46.424 263.661 45.4347 264.725 44.632C265.789 43.8107 267.04 43.4 268.477 43.4C270.213 43.4 271.66 43.932 272.817 44.996C273.975 46.06 274.553 47.3667 274.553 48.916C274.553 50.764 273.536 52.7613 271.501 54.908L265.901 60.536H274.777ZM284.123 43.848V63H281.547V47.04L277.823 48.664L276.843 46.48L282.471 43.848H284.123Z" fill="#545454"/>
<circle cx="35" cy="35" r="35" fill="#49BDCD"/>
<path d="M18.064 48V26.832H10.864V22.224H30.124V26.832H22.924V48H18.064ZM44.6944 48.576C42.7744 48.576 40.9864 48.228 39.3304 47.532C37.6984 46.836 36.2824 45.888 35.0824 44.688C33.8824 43.464 32.9344 42.036 32.2384 40.404C31.5664 38.748 31.2304 36.984 31.2304 35.112C31.2304 33.24 31.5664 31.488 32.2384 29.856C32.9344 28.2 33.8824 26.772 35.0824 25.572C36.2824 24.348 37.6984 23.388 39.3304 22.692C40.9864 21.996 42.7744 21.648 44.6944 21.648C46.6144 21.648 48.3904 21.996 50.0224 22.692C51.6784 23.388 53.1064 24.348 54.3064 25.572C55.5064 26.772 56.4424 28.2 57.1144 29.856C57.8104 31.488 58.1584 33.24 58.1584 35.112C58.1584 36.984 57.8104 38.748 57.1144 40.404C56.4424 42.036 55.5064 43.464 54.3064 44.688C53.1064 45.888 51.6784 46.836 50.0224 47.532C48.3904 48.228 46.6144 48.576 44.6944 48.576ZM44.6944 43.968C45.8944 43.968 47.0104 43.752 48.0424 43.32C49.0984 42.888 50.0104 42.288 50.7784 41.52C51.5704 40.752 52.1824 39.828 52.6144 38.748C53.0704 37.644 53.2984 36.432 53.2984 35.112C53.2984 33.792 53.0704 32.592 52.6144 31.512C52.1824 30.408 51.5704 29.472 50.7784 28.704C50.0104 27.936 49.0984 27.336 48.0424 26.904C47.0104 26.472 45.8944 26.256 44.6944 26.256C43.4944 26.256 42.3664 26.472 41.3104 26.904C40.2784 27.336 39.3664 27.936 38.5744 28.704C37.8064 29.472 37.1944 30.408 36.7384 31.512C36.3064 32.592 36.0904 33.792 36.0904 35.112C36.0904 36.432 36.3064 37.644 36.7384 38.748C37.1944 39.828 37.8064 40.752 38.5744 41.52C39.3664 42.288 40.2784 42.888 41.3104 43.32C42.3664 43.752 43.4944 43.968 44.6944 43.968Z" fill="white"/>
</svg>
